<?xml version="1.0" encoding="utf-8"?>
<!-- Generator: Adobe Illustrator 17.0.2, SVG Export Plug-In . SVG Version: 6.00 Build 0)  -->
<!DOCTYPE svg PUBLIC "-//W3C//DTD SVG 1.1//EN" "http://www.w3.org/Graphics/SVG/1.1/DTD/svg11.dtd">
<svg version="1.1" id="Layer_1" xmlns="http://www.w3.org/2000/svg" xmlns:xlink="http://www.w3.org/1999/xlink" x="0px" y="0px"
	 width="32.491px" height="32.502px" viewBox="0 0 32.491 32.502" enable-background="new 0 0 32.491 32.502" xml:space="preserve">
<g>
	<g id="Client_Friendly-Green">
		<g>
			<path fill="#61C4AC" d="M16.261,32.502c-0.744-0.005-1.486-0.05-2.223-0.151c-1.323-0.181-2.623-0.527-3.86-1.028
				c-1.824-0.737-3.51-1.812-4.952-3.149c-1.138-1.055-2.123-2.273-2.918-3.605c-0.696-1.167-1.244-2.423-1.626-3.727
				c-0.479-1.632-0.695-3.339-0.647-5.039c0.052-1.821,0.41-3.63,1.06-5.333C1.823,8.565,2.916,6.804,4.294,5.3
				c1.442-1.573,3.194-2.858,5.128-3.758c2.044-0.951,4.282-1.462,6.535-1.504c2.327-0.043,4.656,0.414,6.79,1.345
				c1.959,0.855,3.744,2.101,5.224,3.643c1.381,1.438,2.495,3.13,3.266,4.969c0.718,1.714,1.136,3.549,1.234,5.404
				c0.093,1.762-0.098,3.537-0.572,5.237c-0.673,2.411-1.911,4.652-3.589,6.51c-1.535,1.7-3.431,3.072-5.53,3.993
				c-1.259,0.553-2.589,0.944-3.948,1.16c-0.684,0.109-1.373,0.169-2.065,0.194C16.598,32.498,16.43,32.501,16.261,32.502z
				 M6.571,27.617c1.096,0.936,2.327,1.715,3.646,2.299c1.156,0.513,2.379,0.877,3.627,1.08c0.672,0.109,1.35,0.168,2.031,0.19
				c0.193,0.003,0.193,0.003,0.386,0.005c0.684-0.005,1.367-0.046,2.045-0.139c0.774-0.106,1.54-0.273,2.288-0.5
				c0.226-0.07,0.451-0.145,0.674-0.223c0.046-0.016,0.093-0.033,0.139-0.049c0.189-0.069,0.377-0.143,0.563-0.22
				c1.327-0.55,2.571-1.294,3.687-2.198c0.086-0.246,0.092-0.524,0.07-0.781c-0.017-0.198-0.055-0.394-0.116-0.583
				c-0.161-0.493-0.472-0.934-0.883-1.25c-0.198-0.152-0.416-0.27-0.647-0.362c-1.81-0.683-3.644-1.304-5.466-1.955
				c-0.053-0.023-0.103-0.046-0.151-0.079c-0.16-0.111-0.26-0.294-0.275-0.487c-0.041-0.671-0.031-1.344-0.018-2.017
				c-0.387,0.174-0.795,0.303-1.213,0.38c-0.202,0.037-0.405,0.06-0.61,0.075c-0.112,0.007-0.224,0.01-0.337,0.011
				c-0.211-0.003-0.421-0.013-0.631-0.038c-0.429-0.052-0.851-0.159-1.255-0.314c-0.002,0.62-0.021,1.241-0.021,1.861
				c-0.003,0.058-0.009,0.112-0.024,0.169c-0.05,0.188-0.189,0.344-0.366,0.423c-0.237,0.101-0.485,0.175-0.727,0.262
				c-0.91,0.323-1.821,0.644-2.73,0.968c-0.68,0.243-1.36,0.488-2.038,0.737c-0.283,0.113-0.546,0.264-0.777,0.464
				c-0.579,0.502-0.919,1.267-0.886,2.035C6.559,27.459,6.564,27.538,6.571,27.617z M26.991,26.638c1.631-1.688,2.855-3.755,3.542-6
				c0.465-1.521,0.682-3.115,0.647-4.705c-0.037-1.675-0.356-3.341-0.944-4.91c-0.659-1.756-1.655-3.382-2.913-4.772
				c-1.316-1.454-2.92-2.644-4.693-3.483c-1.927-0.911-4.045-1.395-6.175-1.422c-2.078-0.027-4.156,0.38-6.066,1.199
				C8.556,3.331,6.887,4.488,5.505,5.924c-1.298,1.35-2.341,2.942-3.052,4.675c-0.631,1.537-1.001,3.178-1.092,4.838
				c-0.087,1.578,0.074,3.17,0.483,4.697c0.609,2.275,1.765,4.39,3.343,6.137c0.05,0.055,0.101,0.11,0.151,0.165
				c0.203-0.904,0.741-1.728,1.489-2.276c0.202-0.148,0.417-0.277,0.644-0.384c0.114-0.054,0.231-0.1,0.349-0.145l4.973-1.777
				v-2.128c-0.025-0.019-0.05-0.037-0.075-0.056c-1.191-0.91-2.017-2.24-2.432-3.67c-0.32-1.101-0.405-2.278-0.253-3.421
				c0.001-0.012,0.003-0.025,0.005-0.037c0.189-1.376,0.721-2.701,1.601-3.784c0.22-0.27,0.46-0.524,0.72-0.756
				c0.427-0.381,0.908-0.704,1.428-0.946c0.65-0.302,1.358-0.474,2.075-0.494c0.701-0.02,1.399,0.106,2.052,0.358
				c0.544,0.21,1.053,0.513,1.506,0.879c1.119,0.901,1.901,2.177,2.305,3.548c0.732,2.487,0.264,5.367-1.427,7.37
				c-0.221,0.262-0.463,0.507-0.722,0.731c-0.026,0.023-0.053,0.045-0.079,0.067v2.34c1.68,0.601,3.368,1.181,5.04,1.802
				c0.071,0.028,0.14,0.057,0.21,0.087c0.299,0.137,0.582,0.306,0.839,0.512c0.662,0.531,1.142,1.278,1.347,2.102
				C26.955,26.45,26.975,26.544,26.991,26.638z M11.272,13.592c-0.014,1.035,0.195,2.075,0.638,3.01
				c0.576,1.216,1.578,2.281,2.879,2.706c0.291,0.095,0.59,0.153,0.895,0.181c0.109,0.008,0.216,0.012,0.325,0.014
				c0.138-0.002,0.276-0.007,0.414-0.022c0.289-0.031,0.575-0.095,0.851-0.188c0.379-0.129,0.733-0.313,1.057-0.539
				c0.029-0.035,0.061-0.068,0.096-0.097c0.049-0.04,0.104-0.073,0.162-0.097c0.57-0.457,1.037-1.046,1.382-1.688
				c0.499-0.931,0.754-1.984,0.775-3.04c-0.014,0.002-0.028,0.005-0.043,0.007c-0.1,0.014-0.2,0.025-0.3,0.035
				c-0.104,0.009-0.103,0.009-0.207,0.015c-0.112,0.004-0.112,0.004-0.225,0.006c-0.294-0.003-0.586-0.029-0.873-0.093
				c-0.57-0.127-1.095-0.4-1.54-0.776c-0.283-0.239-0.528-0.515-0.753-0.808l-0.017-0.023c-0.054,0.054-0.111,0.104-0.167,0.155
				c-0.079,0.068-0.078,0.068-0.158,0.134c-0.509,0.403-1.08,0.714-1.689,0.939c-0.471,0.174-0.963,0.296-1.464,0.349
				c-0.556,0.06-1.125,0.032-1.672-0.087C11.516,13.66,11.393,13.628,11.272,13.592z M11.417,12.257
				c0.156,0.059,0.315,0.11,0.478,0.145c0.369,0.08,0.751,0.108,1.128,0.082c0.592-0.042,1.178-0.211,1.715-0.463
				c0.302-0.142,0.594-0.312,0.857-0.518c0.164-0.128,0.319-0.271,0.451-0.432c0.05-0.061,0.097-0.124,0.139-0.19
				c0.035-0.054,0.064-0.11,0.097-0.165c0.02-0.029,0.041-0.056,0.064-0.083c0.047-0.051,0.099-0.096,0.16-0.132
				c0.209-0.12,0.472-0.114,0.677,0.012c0.076,0.047,0.139,0.113,0.191,0.185c0.056,0.088,0.106,0.179,0.16,0.267
				c0.162,0.255,0.332,0.506,0.533,0.731c0.147,0.164,0.307,0.318,0.485,0.448c0.197,0.144,0.416,0.259,0.65,0.332
				c0.252,0.079,0.516,0.111,0.78,0.11c0.177-0.001,0.355-0.016,0.531-0.042c0.046-0.007,0.092-0.015,0.138-0.023
				c-0.106-0.634-0.299-1.255-0.584-1.831c-0.55-1.114-1.456-2.09-2.629-2.548c-0.176-0.069-0.357-0.125-0.541-0.168
				c-0.24-0.056-0.486-0.09-0.733-0.099c-0.272-0.011-0.545,0.007-0.814,0.053c-0.218,0.037-0.432,0.093-0.64,0.166
				c-1.278,0.449-2.253,1.511-2.817,2.718C11.678,11.272,11.52,11.759,11.417,12.257z"/>
		</g>
	</g>
</g>
</svg>
