<?xml version="1.0" encoding="utf-8"?>
<!-- Generator: Adobe Illustrator 17.0.2, SVG Export Plug-In . SVG Version: 6.00 Build 0)  -->
<!DOCTYPE svg PUBLIC "-//W3C//DTD SVG 1.1//EN" "http://www.w3.org/Graphics/SVG/1.1/DTD/svg11.dtd">
<svg version="1.1" id="Layer_1" xmlns="http://www.w3.org/2000/svg" xmlns:xlink="http://www.w3.org/1999/xlink" x="0px" y="0px"
	 width="32.492px" height="32.466px" viewBox="0 0 32.492 32.466" enable-background="new 0 0 32.492 32.466" xml:space="preserve">
<g>
	<g id="Flexibility-Green">
		<g>
			<path fill="#61C4AC" d="M16.261,32.466c-0.744-0.005-1.486-0.05-2.223-0.151c-1.323-0.181-2.623-0.527-3.86-1.028
				c-1.824-0.737-3.51-1.812-4.952-3.149c-1.138-1.055-2.123-2.273-2.918-3.605c-0.696-1.167-1.244-2.423-1.626-3.727
				c-0.479-1.632-0.695-3.339-0.647-5.039c0.052-1.821,0.41-3.631,1.06-5.333c0.728-1.905,1.822-3.667,3.199-5.17
				c1.442-1.573,3.194-2.858,5.128-3.758c2.044-0.951,4.282-1.462,6.535-1.504c2.327-0.043,4.656,0.414,6.79,1.345
				c1.959,0.855,3.744,2.101,5.224,3.643c1.381,1.438,2.495,3.13,3.266,4.969c0.718,1.714,1.136,3.549,1.234,5.404
				c0.093,1.762-0.098,3.538-0.572,5.237c-0.673,2.411-1.911,4.652-3.589,6.51c-1.535,1.701-3.431,3.072-5.53,3.993
				c-1.259,0.553-2.589,0.944-3.948,1.16c-0.684,0.109-1.373,0.169-2.065,0.194C16.598,32.462,16.43,32.465,16.261,32.466z
				 M17.017,25.024c-0.15,0.017-0.3,0.03-0.451,0.034c-0.375,0.009-0.752-0.03-1.12-0.114c-0.369-0.085-0.73-0.217-1.07-0.392
				c-0.312-0.16-0.607-0.356-0.878-0.584c-0.216-0.181-0.418-0.383-0.601-0.601c-0.113-0.134-0.221-0.274-0.316-0.422
				c-0.231-0.357-0.398-0.759-0.536-1.162c-0.198-0.581-0.349-1.178-0.477-1.78c-0.286-1.34-0.472-2.703-0.623-4.064
				c-0.09-0.813-0.168-1.628-0.225-2.444l-0.002-0.062c0.003-0.126,0.023-0.246,0.07-0.362c0.118-0.288,0.377-0.493,0.674-0.533
				c0.119-0.016,0.235-0.003,0.352,0.028c0.117,0.04,0.233,0.087,0.348,0.132c1.023,0.405,2.039,0.833,3.04,1.296
				c0.759,0.351,1.511,0.722,2.245,1.13c0.527,0.293,1.046,0.605,1.537,0.962c0.381,0.277,0.754,0.583,1.054,0.956
				c0.11,0.137,0.209,0.284,0.301,0.434c0.171,0.279,0.316,0.575,0.431,0.883c0.433,1.157,0.434,2.464,0.007,3.612
				c-0.152,0.41-0.358,0.797-0.609,1.147c-0.308,0.43-0.684,0.804-1.108,1.105c-0.387,0.275-0.813,0.487-1.261,0.628
				c-0.183,0.057-0.368,0.1-0.556,0.136C17.129,25.008,17.13,25.008,17.017,25.024z M16.79,23.217
				c0.412-0.057,0.805-0.193,1.16-0.418c0.299-0.19,0.566-0.436,0.784-0.724c0.164-0.217,0.299-0.458,0.401-0.714
				c0.286-0.717,0.306-1.543,0.049-2.28c-0.077-0.22-0.177-0.432-0.298-0.629c-0.052-0.084-0.106-0.168-0.168-0.245
				c-0.082-0.103-0.177-0.194-0.274-0.281c-0.139-0.124-0.285-0.238-0.435-0.346c-0.386-0.281-0.794-0.528-1.206-0.763
				c-0.584-0.332-1.182-0.635-1.786-0.924c-0.807-0.386-1.626-0.744-2.45-1.089l-0.004-0.002c0.064,0.674,0.141,1.347,0.227,2.019
				c0.135,1.056,0.3,2.113,0.541,3.151c0.095,0.409,0.203,0.814,0.338,1.211c0.046,0.135,0.097,0.269,0.154,0.399
				c0.053,0.122,0.111,0.242,0.183,0.353c0.068,0.105,0.148,0.202,0.23,0.295c0.201,0.228,0.434,0.424,0.69,0.58
				c0.208,0.127,0.43,0.228,0.66,0.299c0.299,0.093,0.607,0.132,0.918,0.129C16.601,23.234,16.695,23.227,16.79,23.217z
				 M2.285,21.473c0.658,1.75,1.646,3.373,2.902,4.762c1.399,1.548,3.123,2.8,5.031,3.646c1.156,0.513,2.379,0.877,3.627,1.08
				c0.672,0.109,1.35,0.167,2.031,0.19c0.193,0.003,0.193,0.003,0.386,0.005c0.684-0.005,1.367-0.046,2.045-0.139
				c1.257-0.172,2.492-0.507,3.664-0.992c1.878-0.778,3.592-1.946,5.007-3.407c1.351-1.394,2.424-3.049,3.145-4.85
				c-2.199,0.071-4.403-0.037-6.603-0.037c-0.027-0.002-0.052-0.004-0.077-0.013c-0.087-0.031-0.14-0.105-0.155-0.194
				c-0.02-0.357-0.001-0.716-0.001-1.074c0.005-0.09,0.049-0.17,0.132-0.21c0.024-0.012,0.049-0.017,0.075-0.022
				c2.381-0.134,4.768-0.013,7.153-0.002c0.387-1.403,0.566-2.863,0.534-4.318c-0.037-1.675-0.356-3.341-0.944-4.91
				c-0.659-1.756-1.655-3.382-2.913-4.772c-1.316-1.454-2.92-2.644-4.693-3.483c-1.927-0.911-4.045-1.395-6.175-1.422
				c-2.078-0.027-4.156,0.38-6.066,1.199C8.556,3.296,6.887,4.452,5.505,5.889c-1.298,1.35-2.341,2.942-3.052,4.675
				c-0.631,1.537-1.001,3.178-1.092,4.838c-0.084,1.523,0.063,3.059,0.441,4.538c2.384-0.11,4.775,0.016,7.163,0.016
				c0.09,0.005,0.17,0.049,0.21,0.132c0.012,0.024,0.017,0.049,0.022,0.075c0.02,0.357,0.001,0.716,0.001,1.074
				c-0.001,0.027-0.004,0.052-0.013,0.077c-0.031,0.087-0.105,0.14-0.194,0.155C6.759,21.593,4.521,21.496,2.285,21.473z"/>
		</g>
		<g>
			<path fill="#FFFFFF" d="M16.424,25.225c-0.466-0.007-0.927-0.077-1.371-0.217c-0.368-0.115-0.721-0.275-1.05-0.475
				c-0.434-0.263-0.826-0.594-1.161-0.976c-0.145-0.165-0.282-0.338-0.401-0.523c-0.239-0.372-0.412-0.782-0.554-1.199
				c-0.088-0.258-0.167-0.518-0.238-0.781c-0.114-0.42-0.21-0.845-0.297-1.271c-0.12-0.591-0.222-1.185-0.311-1.781
				c-0.101-0.68-0.186-1.363-0.262-2.046c-0.09-0.816-0.166-1.634-0.225-2.453l-0.003-0.072c0.007-0.158,0.031-0.311,0.096-0.457
				c0.046-0.103,0.109-0.199,0.185-0.282c0.06-0.066,0.128-0.123,0.203-0.171c0.152-0.098,0.331-0.155,0.512-0.159
				c0.087-0.002,0.174,0.009,0.259,0.028c0.055,0.012,0.097,0.028,0.152,0.048c0.071,0.026,0.212,0.081,0.264,0.102
				c0.267,0.106,0.502,0.2,0.768,0.309c0.128,0.052,0.255,0.105,0.383,0.158c0.319,0.133,0.636,0.268,0.953,0.407
				c0.317,0.139,0.632,0.28,0.946,0.426c1.038,0.482,2.07,0.993,3.044,1.597c0.312,0.193,0.617,0.398,0.91,0.619
				c0.294,0.221,0.576,0.461,0.82,0.737c0.191,0.216,0.354,0.454,0.499,0.703c0.289,0.498,0.496,1.042,0.61,1.606
				c0.157,0.777,0.142,1.589-0.048,2.359c-0.163,0.661-0.456,1.29-0.864,1.836c-0.244,0.326-0.528,0.622-0.845,0.878
				c-0.34,0.275-0.718,0.504-1.121,0.676c-0.321,0.137-0.66,0.24-1.005,0.3c-0.193,0.034-0.387,0.053-0.583,0.066
				C16.6,25.223,16.512,25.225,16.424,25.225z M16.426,24.892c0.504,0,1.006-0.081,1.481-0.251c0.404-0.145,0.785-0.351,1.13-0.606
				c0.33-0.245,0.626-0.534,0.878-0.858c0.412-0.527,0.706-1.143,0.866-1.792c0.187-0.758,0.193-1.561,0.022-2.322
				c-0.138-0.611-0.393-1.196-0.748-1.712c-0.294-0.428-0.686-0.77-1.101-1.077c-0.505-0.373-1.043-0.697-1.59-1.003
				c-0.788-0.44-1.601-0.835-2.421-1.211c-0.992-0.454-2-0.876-3.016-1.273c-0.081-0.031-0.081-0.031-0.163-0.06
				c-0.093-0.023-0.186-0.035-0.282-0.023c-0.234,0.029-0.437,0.198-0.532,0.41c-0.041,0.09-0.057,0.186-0.065,0.284l-0.002,0.037
				c0.004,0.118,0.015,0.237,0.024,0.355c0.015,0.204,0.032,0.406,0.05,0.61c0.052,0.593,0.113,1.186,0.181,1.777
				c0.078,0.679,0.165,1.357,0.27,2.032c0.127,0.816,0.279,1.628,0.476,2.43c0.081,0.331,0.175,0.66,0.282,0.984
				c0.134,0.404,0.29,0.805,0.514,1.169c0.12,0.195,0.261,0.376,0.412,0.548c0.256,0.292,0.549,0.553,0.87,0.773
				c0.29,0.199,0.603,0.364,0.932,0.49c0.384,0.147,0.786,0.237,1.195,0.276C16.2,24.885,16.313,24.89,16.426,24.892z
				 M16.446,23.405c-0.307-0.005-0.614-0.043-0.908-0.136c-0.512-0.162-0.974-0.45-1.344-0.839
				c-0.119-0.125-0.233-0.259-0.326-0.404c-0.097-0.15-0.171-0.314-0.239-0.478c-0.123-0.299-0.217-0.609-0.304-0.921
				c-0.217-0.785-0.37-1.589-0.5-2.393c-0.075-0.462-0.14-0.926-0.199-1.39c-0.086-0.674-0.162-1.348-0.227-2.024l0-0.029
				c0.004-0.025,0.003-0.032,0.014-0.055c0.028-0.062,0.092-0.102,0.16-0.099c0.026,0.001,0.031,0.005,0.056,0.012
				c0.312,0.129,0.622,0.263,0.932,0.397c1.239,0.544,2.472,1.116,3.637,1.806c0.373,0.221,0.739,0.455,1.082,0.72
				c0.225,0.174,0.454,0.363,0.62,0.596c0.248,0.346,0.429,0.74,0.531,1.153c0.233,0.94,0.06,1.972-0.499,2.767
				c-0.157,0.223-0.342,0.426-0.55,0.601c-0.213,0.18-0.45,0.331-0.704,0.446c-0.273,0.123-0.567,0.208-0.864,0.247
				c-0.075,0.01-0.15,0.014-0.226,0.019C16.515,23.404,16.516,23.404,16.446,23.405z M16.448,23.071
				c0.302-0.001,0.603-0.056,0.888-0.158c0.243-0.087,0.473-0.209,0.681-0.362c0.204-0.15,0.388-0.328,0.545-0.527
				c0.563-0.712,0.758-1.675,0.56-2.557c-0.089-0.396-0.257-0.775-0.494-1.106c-0.084-0.117-0.189-0.217-0.295-0.313
				c-0.1-0.09-0.205-0.174-0.312-0.255c-0.365-0.274-0.751-0.517-1.146-0.746c-1.302-0.754-2.679-1.373-4.062-1.962l-0.055-0.023
				c0.059,0.58,0.125,1.158,0.2,1.736c0.059,0.461,0.124,0.921,0.198,1.38c0.12,0.741,0.26,1.481,0.452,2.208
				c0.066,0.25,0.139,0.497,0.222,0.741c0.074,0.218,0.159,0.438,0.273,0.639c0.082,0.143,0.187,0.271,0.298,0.392
				c0.277,0.302,0.618,0.545,0.997,0.703c0.249,0.104,0.51,0.166,0.777,0.194C16.265,23.065,16.356,23.07,16.448,23.071z"/>
		</g>
	</g>
</g>
</svg>
