<?xml version="1.0" encoding="utf-8"?>
<!-- Generator: Adobe Illustrator 17.0.2, SVG Export Plug-In . SVG Version: 6.00 Build 0)  -->
<!DOCTYPE svg PUBLIC "-//W3C//DTD SVG 1.1//EN" "http://www.w3.org/Graphics/SVG/1.1/DTD/svg11.dtd">
<svg version="1.1" id="Layer_1" xmlns="http://www.w3.org/2000/svg" xmlns:xlink="http://www.w3.org/1999/xlink" x="0px" y="0px"
	 width="32.492px" height="32.456px" viewBox="0 0 32.492 32.456" enable-background="new 0 0 32.492 32.456" xml:space="preserve">
<g>
	<g id="Time-Wasting">
		<g>
			<path fill="#B3B3B3" d="M16.261,32.456c-0.744-0.005-1.486-0.05-2.223-0.151c-1.323-0.181-2.623-0.527-3.86-1.028
				c-1.824-0.737-3.51-1.812-4.952-3.149c-1.138-1.055-2.123-2.273-2.918-3.605c-0.696-1.167-1.244-2.423-1.626-3.727
				c-0.479-1.632-0.695-3.339-0.647-5.039c0.052-1.821,0.41-3.63,1.06-5.332c0.728-1.905,1.822-3.667,3.199-5.17
				c1.442-1.573,3.194-2.858,5.128-3.758c2.044-0.951,4.282-1.462,6.535-1.504c2.327-0.043,4.656,0.414,6.79,1.345
				c1.959,0.855,3.744,2.101,5.224,3.643c1.381,1.438,2.495,3.13,3.266,4.969c0.718,1.714,1.136,3.549,1.234,5.404
				c0.093,1.762-0.098,3.537-0.572,5.237c-0.657,2.355-1.854,4.548-3.473,6.38c-1.556,1.76-3.494,3.178-5.645,4.122
				c-1.259,0.553-2.589,0.944-3.948,1.16c-0.684,0.109-1.373,0.169-2.065,0.194C16.598,32.453,16.43,32.455,16.261,32.456z
				 M16.261,31.146c0.684-0.005,1.367-0.046,2.045-0.139c1.257-0.172,2.492-0.507,3.664-0.992c1.878-0.778,3.592-1.947,5.007-3.407
				c1.638-1.691,2.868-3.764,3.556-6.015c0.465-1.521,0.682-3.115,0.647-4.705c-0.037-1.675-0.356-3.341-0.944-4.91
				c-0.659-1.756-1.655-3.382-2.913-4.772c-1.316-1.454-2.92-2.644-4.693-3.483c-1.927-0.911-4.045-1.395-6.175-1.422
				c-2.078-0.027-4.156,0.38-6.066,1.199C8.556,3.286,6.887,4.443,5.505,5.879c-1.298,1.35-2.341,2.942-3.052,4.675
				c-0.631,1.537-1.001,3.178-1.092,4.838c-0.087,1.578,0.074,3.17,0.483,4.697c0.609,2.275,1.765,4.39,3.343,6.137
				c1.399,1.548,3.123,2.8,5.031,3.646c1.156,0.513,2.379,0.877,3.627,1.08c0.672,0.109,1.35,0.167,2.031,0.19
				C16.068,31.144,16.068,31.144,16.261,31.146z M16.441,15.738c2.265-0.057,4.534,0.049,6.8,0.049
				c0.027,0.002,0.052,0.004,0.077,0.013c0.087,0.031,0.14,0.106,0.155,0.194c0.02,0.357,0.001,0.716,0.001,1.074
				c-0.001,0.027-0.004,0.052-0.013,0.077c-0.031,0.087-0.105,0.14-0.194,0.155c-2.68,0.15-5.369,0.001-8.054,0.001
				c-0.027-0.001-0.052-0.004-0.077-0.013c-0.023-0.008-0.044-0.019-0.062-0.033c-0.052-0.018-0.096-0.051-0.125-0.102
				c-0.016-0.028-0.023-0.055-0.029-0.086c-0.24-3.668-0.002-7.352-0.002-11.028c0.005-0.084,0.042-0.159,0.117-0.202
				c0.028-0.016,0.055-0.023,0.086-0.029c0.359-0.023,0.719-0.002,1.078-0.002c0.084,0.005,0.159,0.042,0.202,0.117
				c0.016,0.028,0.023,0.055,0.029,0.086C16.642,9.245,16.481,12.493,16.441,15.738z"/>
		</g>
	</g>
</g>
</svg>
