<?xml version="1.0" standalone="no"?><!DOCTYPE svg PUBLIC "-//W3C//DTD SVG 1.1//EN" "http://www.w3.org/Graphics/SVG/1.1/DTD/svg11.dtd"><svg width="100%" height="100%" viewBox="0 0 97 97" version="1.1" xmlns="http://www.w3.org/2000/svg" xmlns:xlink="http://www.w3.org/1999/xlink" xml:space="preserve" style="fill-rule:evenodd;clip-rule:evenodd;stroke-linejoin:round;stroke-miterlimit:1.41421;"><path d="M48.5,0.230404c26.4802,0 47.9467,21.4665 47.9467,47.9467c0,26.4802 -21.4665,47.9467 -47.9467,47.9467c-26.4802,0 -47.9467,-21.4665 -47.9467,-47.9467c0,-26.4802 21.4665,-47.9467 47.9467,-47.9467ZM38.4892,61.0482c0,1.02931 0.867481,1.88174 1.88174,1.88174c0.632264,0 1.26453,-0.427154 1.88174,-0.705652l21.1846,-10.5848c0.513714,-0.250271 1.39625,-0.763986 1.39625,-1.88174c0,-1.11775 -0.882535,-1.63147 -1.39625,-1.88174l-21.1846,-10.5848c-0.61721,-0.278497 -1.24947,-0.705652 -1.88174,-0.705652c-1.01426,0 -1.88174,0.852427 -1.88174,1.88174l0,22.5809Z" style="fill:#fff;"/></svg>