<?xml version="1.0" standalone="no"?><!DOCTYPE svg PUBLIC "-//W3C//DTD SVG 1.1//EN" "http://www.w3.org/Graphics/SVG/1.1/DTD/svg11.dtd"><svg width="100%" height="100%" viewBox="0 0 125 31" version="1.1" xmlns="http://www.w3.org/2000/svg" xmlns:xlink="http://www.w3.org/1999/xlink" xml:space="preserve" style="fill-rule:evenodd;clip-rule:evenodd;stroke-linejoin:round;stroke-miterlimit:1.41421;"><g id="Logo COLOR"><g id="Logo Text"><path d="M106.581,10.943l-4.22323,0l-3.5285,4.20174l0,-9.42007l-3.44951,0l0,19.4102l3.44951,0l0,-5.23821l4.22592,5.23821l4.41613,0l-6.34237,-7.7743l5.45205,-6.41759Z" style="fill:#ff9823;fill-rule:nonzero;"/><rect x="107.706" y="5.72472" width="3.45005" height="3.69721" style="fill:#ff9823;"/><rect x="107.706" y="10.943" width="3.45005" height="14.1919" style="fill:#ff9823;"/><path d="M120.692,19.1042l0,1.16649c0,1.15199 -0.218684,1.44804 -0.26328,1.49694c-0.0386861,0.0424473 -0.284235,0.25737 -1.24064,0.25737c-0.747394,0 -1.14178,-0.141312 -1.26213,-0.272952c-0.0655515,-0.0719991 -0.278325,-0.38901 -0.278325,-1.48136l0,-6.14625l6.18172,0l0,-3.18139l-6.18172,0l0,-2.83698l-3.46079,0l0,2.83698l-1.54529,0l0,3.18139l1.54583,0l0,5.88297c0,1.91442 0.339578,3.23727 1.03915,4.04485c0.717842,0.829602 1.93484,1.25031 3.61554,1.25031c2.0998,0 3.48551,-0.382563 4.23505,-1.16757c0.740409,-0.774259 1.10148,-2.12451 1.10148,-4.12813l0,-0.903213l-3.48659,0l0,0.000537307Z" style="fill:#ff9823;fill-rule:nonzero;"/><path d="M49.8703,11.2294c-1.08643,0 -1.9703,0.16764 -2.62743,0.497546c-0.358384,0.181072 -0.679156,0.421786 -0.960705,0.723753l0,-6.27198l-2.53878,0l0,18.5016l2.46731,0l0,-1.09342c0.259519,0.290146 0.564172,0.527098 0.912347,0.712469c0.685066,0.364294 1.61031,0.54859 2.74725,0.54859c1.88272,0 3.24426,-0.408891 4.04592,-1.21485c0.801125,-0.804886 1.20733,-2.18147 1.20733,-4.09267l0,-2.99226c0,-1.9198 -0.406204,-3.30175 -1.20733,-4.1061c-0.801662,-0.804349 -2.16374,-1.2127 -4.04592,-1.2127M52.501,16.9679l0,2.15406c0,1.85908 -0.281012,2.55382 -0.515277,2.80904c-0.328832,0.358921 -1.0859,0.54859 -2.1863,0.54859c-1.25139,0 -2.16051,-0.267042 -2.70319,-0.794677c-0.539456,-0.524412 -0.81402,-1.40291 -0.81402,-2.6097l0,-2.06057c0,-1.21431 0.274564,-2.09603 0.81402,-2.62152c0.54268,-0.527635 1.4518,-0.794677 2.70319,-0.794677c1.10148,0 1.85747,0.189669 2.1863,0.54859c0.234266,0.255221 0.515277,0.952108 0.515277,2.82086" style="fill:#282828;fill-rule:nonzero;"/><path d="M66.4558,12.0026c-0.3831,-0.283161 -0.937063,-0.480352 -1.69359,-0.601247c-0.707633,-0.114446 -1.75055,-0.172476 -3.09704,-0.172476c-1.79407,0 -3.0374,0.243937 -3.7993,0.745245c-0.797364,0.523337 -1.20196,1.39377 -1.20196,2.58767l0,0.628112l2.53125,0l0.00859691,-0.332593c0.0123581,-0.552889 0.156894,-0.910198 0.440592,-1.08966c0.224057,-0.142924 0.776946,-0.312713 2.14063,-0.312713c1.99556,0 2.61024,0.242325 2.79991,0.385786c0.212774,0.161192 0.464771,0.591038 0.464771,1.72744l0,1.35777c-0.262743,-0.188057 -0.569008,-0.335817 -0.917183,-0.444353c-0.642619,-0.199341 -1.53186,-0.296056 -2.71877,-0.296056c-1.13479,0 -1.9832,0.0537307 -2.59573,0.166565c-0.643156,0.118208 -1.145,0.326145 -1.49371,0.619515c-0.408353,0.344414 -0.703872,0.804886 -0.878497,1.36852c-0.16764,0.539994 -0.248773,1.25407 -0.248773,2.18254c0,1.63019 0.379339,2.77465 1.12834,3.40169c0.740946,0.622202 2.11,0.924705 4.18401,0.924705c1.145,0 2.06326,-0.12573 2.72576,-0.375578c0.370205,-0.138088 0.691514,-0.325608 0.959093,-0.559337l0.0408353,0.767274l2.36576,0l0,-9.16108c0,-1.07838 -0.0811334,-1.82899 -0.248236,-2.29323c-0.173013,-0.484114 -0.471218,-0.893542 -0.896765,-1.22452M65.0503,19.8038l0,1.32876c0,0.245012 -0.0757603,0.605545 -0.735036,0.904288c-0.574918,0.261669 -1.43461,0.394383 -2.55382,0.394383c-1.52918,0 -2.15568,-0.232117 -2.4109,-0.426622c-0.344951,-0.261131 -0.519576,-0.837662 -0.519576,-1.70971c0,-0.75223 0.162804,-1.25515 0.481427,-1.49264c0.239102,-0.178923 0.824229,-0.392771 2.24433,-0.392771c1.27879,0 2.21317,0.130566 2.77519,0.387936c0.491099,0.22352 0.718379,0.543755 0.718379,1.00638" style="fill:#282828;fill-rule:nonzero;"/><path d="M79.1523,17.15c-0.292295,-0.137013 -0.746857,-0.238564 -1.3884,-0.311638c-0.606082,-0.068238 -1.44858,-0.123043 -2.50385,-0.163341c-0.176237,-0.00859691 -0.430383,-0.0161192 -0.761364,-0.0241788c-1.52595,-0.0381488 -2.11538,-0.188595 -2.33191,-0.303041c-0.113372,-0.0634022 -0.185908,-0.150446 -0.231042,-0.273489c-0.0327757,-0.0908049 -0.0870437,-0.331518 -0.0870437,-0.926317c0,-0.473367 0.0730738,-1.08643 0.423398,-1.32016c0.183222,-0.121969 0.747394,-0.325608 2.47054,-0.325608c1.72368,0 2.44313,0.156356 2.74349,0.288534c0.359996,0.157431 0.521188,0.417488 0.521188,0.84196l0,0.460472l2.5506,0l0,-0.340653c0,-1.29222 -0.385249,-2.21908 -1.14446,-2.75585c-0.731812,-0.516889 -2.04553,-0.769424 -4.01261,-0.769424c-2.51567,0 -4.11523,0.262743 -4.89164,0.803274c-0.803811,0.560411 -1.21163,1.60816 -1.21163,3.11584c0,0.911273 0.109073,1.59903 0.334742,2.10194c0.233729,0.521725 0.628112,0.937601 1.16434,1.23312c0.257907,0.147759 0.852169,0.326145 3.17925,0.392234c0.77211,0.0236415 1.38357,0.0478203 1.83866,0.0719991c1.50016,0.0779095 1.95741,0.297668 2.09496,0.421786c0.159043,0.141849 0.347638,0.498621 0.347638,1.39163c0,0.731812 -0.14561,1.21754 -0.433069,1.44428c-0.175699,0.137551 -0.771036,0.369667 -2.78379,0.369667c-1.71293,0 -2.42003,-0.210624 -2.71071,-0.387936c-0.372891,-0.227281 -0.555038,-0.65444 -0.555038,-1.30673l0,-0.627037l-2.57478,0l0,0.675932c0,1.46631 0.413726,2.50439 1.22721,3.0836c0.788767,0.562023 2.30612,0.83605 4.63696,0.83605c1.10148,0 1.97836,-0.0392234 2.60486,-0.116596c0.673783,-0.0827453 1.15521,-0.22352 1.46739,-0.42501c0.652291,-0.398682 1.11437,-0.874198 1.37389,-1.41043c0.25737,-0.529785 0.382025,-1.26751 0.382025,-2.254c0,-0.970914 -0.126267,-1.70111 -0.389548,-2.23305c-0.267579,-0.547516 -0.723753,-0.971988 -1.35025,-1.25784" style="fill:#282828;fill-rule:nonzero;"/><path d="M91.5318,20.3013l-0.0274027,0.310563c-0.0628649,0.700111 -0.273489,1.18799 -0.629186,1.44858c-0.259519,0.190744 -0.843035,0.418025 -2.146,0.418025l-0.874198,0c-1.44321,0 -2.02887,-0.302504 -2.26744,-0.556113c-0.242325,-0.258445 -0.530859,-0.881721 -0.530859,-2.38188c0,-0.276176 0.00214923,-0.490024 0.00591038,-0.644768c0.00107461,-0.0317011 0.00214923,-0.0623276 0.00268654,-0.0924168l9.08532,-0.0123581l0,-2.24272c0,-1.93645 -0.413726,-3.32432 -1.22936,-4.12114c-0.824229,-0.805961 -2.19597,-1.19819 -4.19207,-1.19819l-0.874198,0c-1.98804,0 -3.35387,0.392234 -4.17488,1.19873c-0.82208,0.809184 -1.22237,2.15675 -1.22237,4.12061l0,2.99226c0,1.95633 0.401906,3.30068 1.22882,4.10825c0.824766,0.806498 2.19597,1.19873 4.19207,1.19873l0.874198,0c1.76237,0 3.08253,-0.330444 3.92288,-0.981123c0.859154,-0.665186 1.34703,-1.74249 1.44858,-3.20181l0.0268654,-0.364294l-2.61937,0.00107461l0,0ZM91.5388,16.4709l-6.45843,0l0,-0.149371c0,-1.06655 0.18161,-1.81663 0.526024,-2.16696c0.23749,-0.241788 0.821005,-0.531397 2.24863,-0.531397l0.874198,0c1.4373,0 2.03048,0.290683 2.27496,0.53462c0.348712,0.349787 0.53462,1.09772 0.53462,2.16374l-1.42109e-14,0.149371Z" style="fill:#282828;fill-rule:nonzero;"/></g><g id="Logo Icon"><path d="M16.4353,14.0342c0.595873,-0.103163 1.00154,-0.373966 1.21861,-0.811334c0.218147,-0.436293 0.32722,-1.00799 0.32722,-1.71401c0,-0.686141 -0.113909,-1.20088 -0.341727,-1.54368c-0.171938,-0.215997 -0.420711,-0.36322 -0.746319,-0.443278c-0.325071,-0.0784468 -0.845721,-0.119282 -1.56141,-0.119282l-4.88143,0l0,4.67941l4.83469,0c0.555575,-0.000537307 0.938675,-0.0161192 1.15037,-0.0478203Z" style="fill:#282828;fill-rule:nonzero;"/><path d="M35.1863,0.347352l-31.7742,0c-1.65168,0 -2.98958,1.33736 -2.98958,2.98635l0,24.4878c0,1.649 1.33789,2.98743 2.98904,2.98743l31.7747,0c1.65061,0 2.98904,-1.33736 2.98904,-2.98689l0,-24.4883c0.000537307,-1.649 -1.33789,-2.98635 -2.98904,-2.98635ZM20.6591,23.717c-0.798438,0.703335 -2.19114,1.05258 -4.17649,1.05258l-9.56675,0l0,-18.3834l9.22502,0c2.12827,0 3.55267,0.385249 4.27159,1.15521c0.736111,0.661962 1.10202,1.8709 1.10202,3.62682c0,1.38786 -0.253609,2.40875 -0.760289,3.06319c-0.403518,0.478741 -1.02357,0.814557 -1.86284,1.0053l0,0.0951033c0.922019,0.104238 1.60923,0.388473 2.06057,0.853244c0.450801,0.464771 0.730738,0.977361 0.84196,1.53777c0.108536,0.560411 0.164953,1.20249 0.164953,1.92356c-3.55271e-15,1.98427 -0.434144,3.34044 -1.29975,4.07064ZM29.998,24.7701l-8.02844,-9.40932l7.39442,-8.97464l4.31296,0l-7.43418,8.99506l8.19501,9.3889l-4.43977,0Z" style="fill:#282828;fill-rule:nonzero;"/><path d="M15.92,16.7803l-5.46925,0l0,4.97331l5.27797,0c0.643156,0 1.14769,-0.047283 1.51521,-0.142924c0.771036,-0.279937 1.15575,-1.03163 1.15575,-2.25669c0,-1.01282 -0.155282,-1.6995 -0.46692,-2.05842c-0.359458,-0.342802 -1.03002,-0.515277 -2.01275,-0.515277Z" style="fill:#282828;fill-rule:nonzero;"/></g></g></svg>