<?xml version="1.0" standalone="no"?><!DOCTYPE svg PUBLIC "-//W3C//DTD SVG 1.1//EN" "http://www.w3.org/Graphics/SVG/1.1/DTD/svg11.dtd"><svg width="100%" height="100%" viewBox="0 0 211 32" version="1.1" xmlns="http://www.w3.org/2000/svg" xmlns:xlink="http://www.w3.org/1999/xlink" xml:space="preserve" style="fill-rule:evenodd;clip-rule:evenodd;stroke-linejoin:round;stroke-miterlimit:1.41421;"><g id="WHD"><g id="WHD Logo"><path d="M0.356628,15.9757c0,-8.57422 6.95134,-15.5243 15.5268,-15.5243c8.20198,0 14.9176,6.35885 15.4869,14.414l-8.78158,0l0,10.1482l5.92094,0c-2.81814,3.9284 -7.42403,6.48637 -12.6263,6.48637c-8.5755,0 -15.5268,-6.95005 -15.5268,-15.5243ZM9.00684,14.8655l0,10.1482l10.1482,0l0,-10.1482l-10.1482,0Z" style="fill:#9f966b;fill-rule:nonzero;"/><rect x="35.1708" y="14.8655" width="10.1494" height="10.1482" style="fill:#fff;fill-rule:nonzero;"/><rect x="22.1708" y="14.8655" width="10.1494" height="10.1482" style="fill:#fff;fill-rule:nonzero;"/><rect x="9.17075" y="14.8655" width="10.1494" height="10.1482" style="fill:#fff;fill-rule:nonzero;"/><path d="M54.0585,25.2828l-3.64247,-21.7067l2.88512,0l2.10975,14.8532l2.52705,-14.8532l2.39439,0l2.55668,14.8532l2.0814,-14.8532l2.88383,0l-3.61284,21.7067l-2.40856,0l-2.69063,-15.4019l-2.7048,15.4019l-2.37893,0Z" style="fill:#9f966b;fill-rule:nonzero;"/><path d="M69.9576,25.2828l0,-21.7067l2.92891,0l0,8.25222l5.23314,0l0,-8.25222l2.92763,0l0,21.7067l-2.92763,0l0,-10.7187l-5.23314,0l0,10.7187l-2.92891,0Z" style="fill:#9f966b;fill-rule:nonzero;"/><path d="M87.5967,22.4879l1.51598,0c1.64477,0 2.8014,-0.593768 3.47116,-1.78388c0.668476,-1.18882 1.00335,-3.29599 1.00335,-6.31893c0,-3.01263 -0.332298,-5.11207 -0.995621,-6.29574c-0.664608,-1.18496 -1.82381,-1.77744 -3.47888,-1.77744l-1.51598,0l0,16.176ZM84.6382,25.2828l0,-21.7067l3.86528,0c2.95339,0 5.03093,0.810154 6.23521,2.43174c1.20428,1.6203 1.80706,4.42299 1.80706,8.40678c0,3.99538 -0.602783,6.8045 -1.80706,8.42996c-1.20428,1.62546 -3.28182,2.43818 -6.23521,2.43818l-3.86528,0Z" style="fill:#9f966b;fill-rule:nonzero;"/><path d="M98.7083,23.915c0,-0.475272 0.161002,-0.879704 0.483,-1.21072c0.323283,-0.332303 0.721275,-0.498456 1.19655,-0.498456c0.466255,0 0.865532,0.166152 1.19784,0.498456c0.331013,0.331016 0.497162,0.735448 0.497162,1.21072c0,0.466256 -0.163567,0.860384 -0.489438,1.18238c-0.328442,0.322 -0.729004,0.483 -1.20557,0.483c-0.475276,0 -0.873268,-0.161 -1.19655,-0.483c-0.321998,-0.322 -0.483,-0.716128 -0.483,-1.18238Z" style="fill:#fff;fill-rule:nonzero;"/><path d="M106.803,17.9683c0,1.87275 0.153272,3.18394 0.461102,3.93226c0.306545,0.748328 0.823034,1.12314 1.5456,1.12314c0.723863,0 1.23906,-0.374808 1.54689,-1.12314c0.306545,-0.748328 0.459817,-2.05951 0.459817,-3.93226c0,-1.86374 -0.153272,-3.16977 -0.459817,-3.9181c-0.30783,-0.748329 -0.823022,-1.12185 -1.54689,-1.12185c-0.722566,0 -1.23906,0.37352 -1.5456,1.12185c-0.30783,0.748327 -0.461102,2.05436 -0.461102,3.9181ZM113.403,25.6254c0,2.01186 -0.36837,3.43638 -1.1064,4.27358c-0.739311,0.838488 -1.96936,1.25709 -3.69398,1.25709c-1.41809,0 -2.50259,-0.359352 -3.25606,-1.07806c-0.753485,-0.718704 -1.12958,-1.74653 -1.12958,-3.08476l0,-0.461104l2.54251,0c0.0283362,0.79212 0.194497,1.38202 0.497174,1.76842c0.302677,0.387688 0.761208,0.580888 1.37558,0.580888c0.743178,0 1.2777,-0.233128 1.60484,-0.699384c0.327157,-0.466256 0.490735,-1.22875 0.490735,-2.29006l0,-2.06595c-0.367085,0.574448 -0.785689,1.00078 -1.2558,1.27898c-0.471408,0.27692 -1.01366,0.416024 -1.62804,0.416024c-1.28929,0 -2.23468,-0.6118 -2.84004,-1.83669c-0.604068,-1.2236 -0.906745,-3.12855 -0.906745,-5.71614c0,-2.57729 0.302677,-4.47709 0.906745,-5.70198c0.605365,-1.2236 1.55075,-1.8354 2.84004,-1.8354c0.624681,0 1.17209,0.133953 1.64349,0.400568c0.468838,0.267904 0.883574,0.68908 1.24035,1.26353l0,-1.39748l2.67518,0l0,14.9279Z" style="fill:#fff;fill-rule:nonzero;"/><rect x="116.34" y="2.23793" width="2.67646" height="23.0449" style="fill:#fff;fill-rule:nonzero;"/><path d="M124.048,17.9386c0,1.78388 0.176455,3.08991 0.528081,3.91681c0.351625,0.828184 0.904174,1.24163 1.65766,1.24163c0.762494,0 1.32535,-0.416024 1.68728,-1.24807c0.360634,-0.833336 0.542243,-2.13679 0.542243,-3.91037c0,-1.76456 -0.181608,-3.06286 -0.542243,-3.89491c-0.361932,-0.833337 -0.924787,-1.24936 -1.68728,-1.24936c-0.753485,0 -1.30603,0.413448 -1.65766,1.24163c-0.351625,0.826896 -0.528081,2.12906 -0.528081,3.90264ZM121.328,17.9683c0,-2.4575 0.418604,-4.32897 1.2558,-5.6131c0.837208,-1.28285 2.05437,-1.92427 3.6502,-1.92427c1.59454,0 2.81169,0.641424 3.6489,1.92427c0.837196,1.28414 1.2558,3.1556 1.2558,5.6131c0,2.47811 -0.418604,4.36117 -1.2558,5.64917c-0.837208,1.28929 -2.05437,1.93329 -3.6489,1.93329c-1.59583,0 -2.81299,-0.644 -3.6502,-1.93329c-0.837196,-1.288 -1.2558,-3.17106 -1.2558,-5.64917Z" style="fill:#fff;fill-rule:nonzero;"/><path d="M135.875,18.0134c0,1.86374 0.155855,3.16848 0.467552,3.91681c0.312983,0.748328 0.82946,1.12314 1.55332,1.12314c0.723851,0 1.23906,-0.374808 1.5456,-1.12314c0.30783,-0.748329 0.461102,-2.05307 0.461102,-3.91681c0,-1.87404 -0.153272,-3.18393 -0.461102,-3.93226c-0.306545,-0.749615 -0.821748,-1.12314 -1.5456,-1.12314c-0.723863,0 -1.24034,0.37352 -1.55332,1.12314c-0.311698,0.748329 -0.467552,2.05822 -0.467552,3.93226ZM133.287,25.2828l0,-23.0449l2.69063,0l0,9.88798c0.356778,-0.575737 0.770229,-0.996913 1.24164,-1.26482c0.471408,-0.266617 1.0188,-0.400568 1.6422,-0.400568c1.27898,0 2.22309,0.611799 2.83231,1.8354c0.609233,1.22489 0.914481,3.12984 0.914481,5.71743c0,2.57729 -0.305247,4.47709 -0.914481,5.70069c-0.609221,1.22489 -1.55332,1.83669 -2.83231,1.83669c-0.614375,0 -1.15663,-0.136528 -1.62674,-0.408295c-0.471408,-0.273056 -0.890012,-0.70196 -1.2571,-1.28671l0,1.4271l-2.69063,0Z" style="fill:#fff;fill-rule:nonzero;"/><path d="M147.15,17.9683c0,1.86374 0.157128,3.1775 0.468826,3.93999c0.311698,0.763784 0.825604,1.14503 1.53916,1.14503c0.71226,0 1.22618,-0.383824 1.53788,-1.15276c0.312983,-0.767648 0.468826,-2.07883 0.468826,-3.93226c0,-1.86374 -0.154558,-3.16977 -0.461102,-3.9181c-0.30783,-0.748329 -0.823034,-1.12185 -1.5456,-1.12185c-0.723863,0 -1.23906,0.37352 -1.54689,1.12185c-0.306545,0.748327 -0.461102,2.05436 -0.461102,3.9181ZM151.076,25.2828l0,-1.4271c-0.368358,0.584752 -0.786962,1.01366 -1.25709,1.28671c-0.470123,0.271768 -1.01365,0.408295 -1.62803,0.408295c-1.22876,0 -2.15997,-0.638848 -2.79496,-1.91783c-0.633702,-1.27898 -0.950552,-3.16719 -0.950552,-5.66462c0,-2.47811 0.31428,-4.35344 0.944114,-5.62727c0.628537,-1.27383 1.56363,-1.9101 2.8014,-1.9101c0.624681,0 1.17208,0.133953 1.64349,0.400568c0.470123,0.267904 0.884859,0.68908 1.24163,1.26353l0,-1.39748l2.67518,0l0,14.5853l-2.67518,0Z" style="fill:#fff;fill-rule:nonzero;"/><rect x="156.688" y="2.23793" width="2.67518" height="23.0449" style="fill:#fff;fill-rule:nonzero;"/><path d="M166.825,25.2828l5.78312,-11.507c0.506183,-1.02138 0.884859,-1.95518 1.1373,-2.80269c0.25374,-0.847505 0.378676,-1.61773 0.378676,-2.31196c0,-0.960848 -0.161008,-1.6744 -0.483,-2.14066c-0.322004,-0.466255 -0.819178,-0.699383 -1.4928,-0.699383c-0.744464,0 -1.27383,0.30783 -1.59197,0.922207c-0.316851,0.614375 -0.475276,1.66023 -0.475276,3.13757l0,0.757344l-2.73442,0c-0.0206124,-0.137816 -0.0309186,-0.279495 -0.0309186,-0.423751c0,-0.142969 0,-0.368369 0,-0.676201c0,-2.0711 0.417319,-3.62958 1.24936,-4.67544c0.832055,-1.04586 2.07626,-1.56878 3.73134,-1.56878c1.49665,0 2.6726,0.47527 3.5304,1.4271c0.857808,0.951832 1.28543,2.26559 1.28543,3.93999c0,0.981455 -0.164876,1.99511 -0.497174,3.04097c-0.332298,1.04586 -0.895165,2.29135 -1.68728,3.73906l-3.88074,7.07627l5.635,0l0,2.76534l-9.85707,0Z" style="fill:#fff;fill-rule:nonzero;"/><path d="M181.522,14.4147c0,3.58837 0.150702,5.9145 0.453378,6.98096c0.302677,1.06518 0.850085,1.59841 1.6422,1.59841c0.783106,0 1.32535,-0.520352 1.62804,-1.56234c0.301391,-1.0407 0.453367,-3.37971 0.453367,-7.01702c0,-3.64762 -0.151975,-5.99178 -0.453367,-7.03248c-0.302689,-1.0407 -0.844932,-1.56105 -1.62804,-1.56105c-0.792115,0 -1.33952,0.533231 -1.6422,1.59841c-0.302677,1.06517 -0.453378,3.39774 -0.453378,6.99513ZM178.682,14.4443c0,-2.36863 0.0540899,-4.15509 0.163567,-5.35937c0.109489,-1.20428 0.292382,-2.10846 0.549978,-2.71381c0.426328,-1.07934 0.973735,-1.86245 1.64349,-2.34802c0.668476,-0.485576 1.52886,-0.729007 2.57858,-0.729007c1.05101,0 1.90495,0.243431 2.5644,0.729007c0.659467,0.485576 1.20686,1.26868 1.6422,2.34802c0.248587,0.624679 0.426339,1.53658 0.535816,2.73571c0.108192,1.19913 0.163578,2.97914 0.163578,5.33747c0,2.34931 -0.055387,4.1216 -0.163578,5.31558c-0.109477,1.19398 -0.287229,2.1033 -0.535816,2.72798c-0.435337,1.08063 -0.982733,1.86116 -1.6422,2.34158c-0.659455,0.480424 -1.5134,0.72128 -2.5644,0.72128c-1.04972,0 -1.9101,-0.240856 -2.57858,-0.72128c-0.66975,-0.480423 -1.21716,-1.26095 -1.64349,-2.34158c-0.257596,-0.604072 -0.44049,-1.50696 -0.549978,-2.70609c-0.109477,-1.19913 -0.163567,-2.97785 -0.163567,-5.33747Z" style="fill:#fff;fill-rule:nonzero;"/><path d="M193.971,25.2828l0,-19.0894l-2.69063,0l0,-2.61722l5.39672,0l0,21.7067l-2.7061,0Z" style="fill:#fff;fill-rule:nonzero;"/><path d="M201.501,21.9379c0.466255,0.337457 0.936378,0.587328 1.41294,0.750904c0.475264,0.163576 0.960859,0.246007 1.45674,0.246007c1.28799,0 2.25399,-0.44436 2.89927,-1.33179c0.642711,-0.886144 0.966,-2.20763 0.966,-3.96189c0,-1.32793 -0.332298,-2.32355 -0.996895,-2.98816c-0.663323,-0.664607 -1.64994,-0.995623 -2.95727,-0.995623c-0.516489,0 -0.967273,0.0244713 -1.35367,0.0734155c-0.3864,0.0502324 -0.757352,0.124936 -1.11413,0.222824l1.42582,-10.3774l7.58246,0l0,2.67646l-5.29239,0l-0.847514,5.29239c0.287229,-0.0489441 0.547408,-0.0862967 0.780535,-0.110768c0.233128,-0.0244728 0.439204,-0.0373526 0.616957,-0.0373526c1.47605,0 2.66615,0.5796 3.56776,1.74009c0.901592,1.1592 1.3524,2.70094 1.3524,4.62263c0,2.44849 -0.547408,4.35859 -1.6422,5.7316c-1.09482,1.37301 -2.62367,2.05951 -4.58657,2.05951c-0.712283,0 -1.40006,-0.0837198 -2.05824,-0.252448c-0.659455,-0.168728 -1.30603,-0.426328 -1.93971,-0.7728l0.727707,-2.58759Z" style="fill:#fff;fill-rule:nonzero;"/></g></g></svg>