<?xml version="1.0" encoding="utf-8"?>
<!-- Generator: Adobe Illustrator 16.0.0, SVG Export Plug-In . SVG Version: 6.00 Build 0)  -->
<!DOCTYPE svg PUBLIC "-//W3C//DTD SVG 1.1//EN" "http://www.w3.org/Graphics/SVG/1.1/DTD/svg11.dtd">
<svg version="1.1" id="Layer_1" xmlns="http://www.w3.org/2000/svg" xmlns:xlink="http://www.w3.org/1999/xlink" x="0px" y="0px"
	 width="30.959px" height="24.042px" viewBox="0 0 30.959 24.042" enable-background="new 0 0 30.959 24.042" xml:space="preserve">
<g>
	<path fill="#A3A3A3" d="M27.959,0H3.001C1.344,0,0,1.344,0,3v18.041c0,1.658,1.344,3,3.001,3h24.958c1.657,0,3-1.342,3-3V3
		C30.959,1.344,29.616,0,27.959,0z M3.001,1h24.958c1.103,0,2,0.897,2,2v5H1V3C1,1.897,1.897,1,3.001,1z M27.959,23.041H3.001
		c-1.104,0-2.001-0.896-2.001-2V9h28.959v12.041C29.959,22.144,29.062,23.041,27.959,23.041z"/>
	<path fill="#A3A3A3" d="M4.584,6.042c0.852,0,1.542-0.689,1.542-1.542c0-0.852-0.69-1.541-1.542-1.541
		c-0.853,0-1.542,0.689-1.542,1.541C3.042,5.353,3.731,6.042,4.584,6.042z M4.584,3.959c0.299,0,0.542,0.242,0.542,0.541
		S4.883,5.042,4.584,5.042S4.042,4.799,4.042,4.5S4.285,3.959,4.584,3.959z"/>
	<path fill="#A3A3A3" d="M8.563,6.042c0.852,0,1.541-0.689,1.541-1.542c0-0.852-0.689-1.541-1.541-1.541
		C7.71,2.959,7.02,3.648,7.02,4.5C7.021,5.353,7.711,6.042,8.563,6.042z M8.563,3.959c0.298,0,0.541,0.242,0.541,0.541
		S8.861,5.042,8.563,5.042C8.264,5.042,8.02,4.799,8.02,4.5S8.265,3.959,8.563,3.959z"/>
	<path fill="#A3A3A3" d="M12.542,6.042c0.852,0,1.542-0.689,1.542-1.542c0-0.852-0.69-1.541-1.542-1.541S11,3.648,11,4.5
		C11,5.353,11.69,6.042,12.542,6.042z M12.542,3.959c0.299,0,0.542,0.242,0.542,0.541s-0.243,0.542-0.542,0.542S12,4.799,12,4.5
		S12.243,3.959,12.542,3.959z"/>
</g>
</svg>
