<?xml version="1.0" encoding="utf-8"?>
<!-- Generator: Adobe Illustrator 16.0.0, SVG Export Plug-In . SVG Version: 6.00 Build 0)  -->
<!DOCTYPE svg PUBLIC "-//W3C//DTD SVG 1.1//EN" "http://www.w3.org/Graphics/SVG/1.1/DTD/svg11.dtd">
<svg version="1.1" id="Layer_1" xmlns="http://www.w3.org/2000/svg" xmlns:xlink="http://www.w3.org/1999/xlink" x="0px" y="0px"
	 width="48px" height="48px" viewBox="0 0 48 48" enable-background="new 0 0 48 48" xml:space="preserve">
<g>
	<path fill="#A3A3A3" d="M44,24c0-2.206-1.794-4-4-4H29.954c-0.332,0-0.642-0.165-0.828-0.44s-0.224-0.623-0.101-0.932
		C29.672,17.012,30,15.31,30,13.569V6c0-3.309-2.691-6-6-6c-3.309,0-6,2.691-6,6v7.569c0,1.742,0.328,3.444,0.975,5.06
		c0.123,0.308,0.085,0.657-0.101,0.932S18.379,20,18.046,20H8c-2.206,0-4,1.794-4,4v8h2v15c0,0.552,0.448,1,1,1h5
		c0.378,0,0.725-0.214,0.895-0.553L15,43.236V47c0,0.266,0.106,0.52,0.293,0.707S15.735,48,16,48h25c0.552,0,1-0.448,1-1V32h2V24z
		 M40,46h-2v-9c0-0.552-0.448-1-1-1s-1,0.448-1,1v9h-2v-7c0-0.552-0.448-1-1-1s-1,0.448-1,1v7h-2v-4c0-0.552-0.448-1-1-1
		s-1,0.448-1,1v4H17v-7c0-0.464-0.319-0.867-0.77-0.973s-0.917,0.111-1.125,0.525L11.381,46H8V32h32V46z M42,30h-1H7H6v-6
		c0-1.103,0.897-2,2-2h10.046c0.997,0,1.925-0.494,2.484-1.319c0.559-0.825,0.672-1.871,0.301-2.796
		C20.28,16.507,20,15.054,20,13.569V6c0-2.206,1.794-4,4-4s4,1.794,4,4v7.569c0,1.486-0.279,2.938-0.831,4.317
		c-0.37,0.925-0.257,1.971,0.302,2.796C28.027,21.507,28.957,22,29.954,22H40c1.104,0,2,0.897,2,2V30z"/>
	<circle fill="#A3A3A3" cx="24" cy="6" r="2"/>
</g>
</svg>
