<?xml version="1.0" encoding="utf-8"?>
<!-- Generator: Adobe Illustrator 16.0.0, SVG Export Plug-In . SVG Version: 6.00 Build 0)  -->
<!DOCTYPE svg PUBLIC "-//W3C//DTD SVG 1.1//EN" "http://www.w3.org/Graphics/SVG/1.1/DTD/svg11.dtd">
<svg version="1.1" id="Layer_1" xmlns="http://www.w3.org/2000/svg" xmlns:xlink="http://www.w3.org/1999/xlink" x="0px" y="0px"
	 width="31.958px" height="24.979px" viewBox="0 0 31.958 24.979" enable-background="new 0 0 31.958 24.979" xml:space="preserve">
<path fill="#A3A3A3" d="M28.958,5.938h-1c-0.013-1.646-1.35-2.979-2.998-2.979h-0.004C24.932,1.321,23.601,0,21.959,0H3
	C1.343,0,0,1.343,0,3v13.042c0,1.656,1.343,3,3,3h0.004C3.027,20.679,4.357,22,6,22h1.002C7.013,23.646,8.35,24.979,10,24.979
	h18.958c1.656,0,3-1.344,3-3V8.938C31.958,7.281,30.616,5.938,28.958,5.938z M4,5.958c0-1.104,0.897-2,2-2h18.959
	c1.096,0,1.985,0.886,1.998,1.979H10c-1.657,0-3,1.344-3,3V21H6c-1.088,0-1.973-0.875-1.996-1.958L4,5.958z M1,16.042V3
	c0-1.104,0.897-2,2-2h18.959c1.088,0,1.973,0.875,1.996,1.958H6c-1.657,0-3,1.343-3,3v12.083C1.897,18.042,1,17.144,1,16.042z
	 M8,8.938c0-1.103,0.897-2,2-2h18.958c1.104,0,2,0.897,2,2V21.98c0,1.104-0.896,2-2,2H10c-1.096,0-1.986-0.887-1.998-1.979L8,8.938z
	"/>
</svg>
