<?xml version="1.0" encoding="UTF-8" standalone="no"?>
<svg width="320px" height="179px" viewBox="0 0 320 179" version="1.1" xmlns="http://www.w3.org/2000/svg" xmlns:xlink="http://www.w3.org/1999/xlink" xmlns:sketch="http://www.bohemiancoding.com/sketch/ns">
    <!-- Generator: Sketch 3.2.2 (9983) - http://www.bohemiancoding.com/sketch -->
    <title>Mobile - modal + Image</title>
    <desc>Created with Sketch.</desc>
    <defs></defs>
    <g id="Page-1" stroke="none" stroke-width="1" fill="none" fill-rule="evenodd" sketch:type="MSPage">
        <g id="Mobile---modal-+-Image" sketch:type="MSLayerGroup">
            <g id="Mobile---modal" sketch:type="MSShapeGroup">
                <rect id="Modal-background" fill="#F8F8F8" x="0" y="1" width="320" height="178"></rect>
                <g id="Modal-header" fill="#DDDDDD">
                    <rect id="Divider" x="0" y="0" width="320" height="1"></rect>
                </g>
            </g>
            <g id="Image" transform="translate(125.000000, 28.000000)" fill="#C8C8C8" sketch:type="MSShapeGroup">
                <path d="M67.2008397,37.212 L55.7620714,25.774 C55.7102869,25.69 55.6710987,25.5906 55.5983205,25.522 C55.1826452,25.102 54.5682295,25.032 54.0685794,25.284 C53.8978307,25.354 53.7382785,25.452 53.5997201,25.5906 C53.5829251,25.606 53.5773268,25.634 53.5605318,25.648 L31.8516445,44.674 L24.9083275,37.044 C24.8523443,36.96 24.8131561,36.862 24.7375787,36.778 C24.5836249,36.624 24.4016795,36.526 24.209937,36.456 C23.7242827,36.246 23.1378586,36.33 22.7403779,36.722 L22.7389783,36.722 C22.7123863,36.75 22.6801959,36.764 22.6550035,36.778 L2.82015395,51.632 L2.82015395,4.998 C2.82015395,3.78 3.80405878,2.8 5.01889433,2.8 L65.0006998,2.8 C66.2155353,2.8 67.2008397,3.78 67.2008397,4.998 L67.2008397,37.212 L67.2008397,37.212 Z M67.2008397,64.988 C67.2008397,66.206 66.2155353,67.186 65.0006998,67.186 L52.3289013,67.186 L33.6445066,46.648 L54.4394682,28.42 L67.2008397,41.188 L67.2008397,64.988 L67.2008397,64.988 Z M5.01889433,67.186 C3.80405878,67.186 2.82015395,66.206 2.82015395,64.988 L2.82015395,55.2706 L23.6892932,39.648 L48.73338,67.186 L5.01889433,67.186 L5.01889433,67.186 Z M65.6263121,0 L4.3946816,0 C1.97760672,0 0.0209937019,1.946 0.0209937019,4.368 L0.0209937019,54.25 C-0.00699790063,54.404 -0.00699790063,54.558 0.0209937019,54.712 L0.0209937019,65.618 C0.0209937019,68.04 1.97760672,70 4.3946816,70 L65.6263121,70 C68.0419874,70 70,68.04 70,65.618 L70,4.368 C70,1.946 68.0419874,0 65.6263121,0 L65.6263121,0 Z M16.8159552,22.4 C13.7242827,22.4 11.2176347,19.894 11.2176347,16.8 C11.2176347,13.706 13.7242827,11.2 16.8159552,11.2 C19.9076277,11.2 22.4142757,13.706 22.4142757,16.8 C22.4142757,19.894 19.9076277,22.4 16.8159552,22.4 L16.8159552,22.4 Z M16.8145556,8.386 C12.1763471,8.386 8.41707488,12.152 8.41707488,16.786 C8.41707488,21.434 12.1763471,25.186 16.8145556,25.186 C21.4527642,25.186 25.2120364,21.434 25.2120364,16.786 C25.2120364,12.152 21.4527642,8.386 16.8145556,8.386 L16.8145556,8.386 Z" id="icon-image"></path>
            </g>
        </g>
    </g>
</svg>