<?xml version="1.0" encoding="UTF-8" standalone="no"?>
<svg width="56px" height="56px" viewBox="0 0 56 56" version="1.1" xmlns="http://www.w3.org/2000/svg" xmlns:xlink="http://www.w3.org/1999/xlink" xmlns:sketch="http://www.bohemiancoding.com/sketch/ns">
    <!-- Generator: Sketch 3.2.2 (9983) - http://www.bohemiancoding.com/sketch -->
    <title>ThinkstockPhotos-459929319</title>
    <desc>Created with Sketch.</desc>
    <defs></defs>
    <g id="Page-1" stroke="none" stroke-width="1" fill="none" fill-rule="evenodd" sketch:type="MSPage">
        <g id="ThinkstockPhotos-459929319" sketch:type="MSLayerGroup">
            <g sketch:type="MSShapeGroup">
                <path d="M55.9190154,28.0130092 C55.9190154,43.4488492 43.4057723,55.9620923 27.9699323,55.9620923 C12.5340062,55.9620923 0.0207630769,43.4488492 0.0207630769,28.0130092 C0.0207630769,12.5770831 12.5340062,0.06384 27.9699323,0.06384 C43.4057723,0.06384 55.9190154,12.5770831 55.9190154,28.0130092" id="Fill-4" fill="#E82332"></path>
                <path d="M27.9699323,55.9620923 C12.5340062,55.9620923 0.0207630769,43.4488492 0.0207630769,28.0130092 C0.0207630769,43.4488492 12.5340062,55.9620923 27.9699323,55.9620923 L27.98992,55.9620923 L27.9699323,55.9620923 M28.0000862,55.9620923 L28.0097862,55.9620923 L28.0000862,55.9620923" id="Fill-5" fill="#9C9CA2"></path>
                <path d="M27.6708923,38.1608123 C22.4006031,38.1608123 18.1270277,33.8863754 18.1270277,28.6155692 C18.1270277,23.3435569 22.4006031,19.0699815 27.6708923,19.0699815 C32.9431631,19.0699815 37.2174277,23.3435569 37.2174277,28.6155692 C37.2174277,33.8863754 32.9431631,38.1608123 27.6708923,38.1608123 L27.6708923,38.1608123 Z M42.5539692,15.1697108 L36.2450092,15.1697108 L36.2450092,13.66624 C36.2450092,13.2480492 35.5841231,12.9059323 34.7754831,12.9059323 L20.5685415,12.9059323 C19.7605908,12.9059323 19.0988431,13.2480492 19.0988431,13.66624 L19.0988431,15.1697108 L12.7898831,15.1697108 C11.0960123,15.1697108 9.71074462,16.5553231 9.71074462,18.2488492 L9.71074462,38.9812554 C9.71074462,40.67504 11.0960123,42.0610831 12.7898831,42.0610831 L42.5539692,42.0610831 C44.2487015,42.0610831 45.6338831,40.67504 45.6338831,38.9812554 L45.6338831,18.2488492 C45.6338831,16.5553231 44.2487015,15.1697108 42.5539692,15.1697108 L42.5539692,15.1697108 Z" id="Fill-7" fill="#FFFFFF"></path>
                <path d="M27.6708923,35.12096 C24.0792246,35.12096 21.16688,32.2079262 21.16688,28.6155692 C21.16688,25.0225231 24.0792246,22.1100923 27.6708923,22.1100923 C31.2654031,22.1100923 34.1777477,25.0225231 34.1777477,28.6155692 C34.1777477,32.2079262 31.2654031,35.12096 27.6708923,35.12096 L27.6708923,35.12096 Z M27.6708923,20.0417108 C22.9363938,20.0417108 19.0988431,23.8800369 19.0988431,28.6155692 C19.0988431,33.3498954 22.9363938,37.1883077 27.6708923,37.1883077 C32.4066831,37.1883077 36.2450092,33.3498954 36.2450092,28.6155692 C36.2450092,23.8800369 32.4066831,20.0417108 27.6708923,20.0417108 L27.6708923,20.0417108 Z" id="Fill-8" fill="#FFFFFF"></path>
            </g>
        </g>
    </g>
</svg>