<svg xmlns="http://www.w3.org/2000/svg" xmlns:xlink="http://www.w3.org/1999/xlink" width="300" height="220"><path d="M-428.641 208c0 6.627-5.373 12-12 12h-276c-6.627 0-12-5.373-12-12v-196c0-6.627 5.373-12 12-12h276c6.627 0 12 5.373 12 12v196z" fill="#FAFAFA"/><rect x="-708.641" y="17.333" width="260" height="185.333" fill="#fff"/><g stroke="#5BAEE0" fill="none"><polyline points="-448.641,197.667 -448.641,202.667 -453.641,202.667"/><line x1="-461.905" y1="202.667" x2="-699.508" y2="202.667" stroke-dasharray="10.3306,8.2645"/><polyline points="-703.641,202.667 -708.641,202.667 -708.641,197.667"/><line x1="-708.641" y1="189.416" x2="-708.641" y2="26.459" stroke-dasharray="10.3137,8.251"/><polyline points="-708.641,22.333 -708.641,17.333 -703.641,17.333"/><line x1="-695.376" y1="17.333" x2="-457.773" y2="17.333" stroke-dasharray="10.3306,8.2645"/><polyline points="-453.641,17.333 -448.641,17.333 -448.641,22.333"/><line x1="-448.641" y1="30.584" x2="-448.641" y2="193.541" stroke-dasharray="10.3137,8.251"/></g><rect x="-685.974" y="57.693" width="216" height="4" fill="#E8E7E8"/><rect x="-685.974" y="84.693" width="216" height="4" fill="#E8E7E8"/><rect x="-685.974" y="110.693" width="216" height="4" fill="#E8E7E8"/><rect x="-686.641" y="133.526" width="125" height="4" fill="#F7F7F7"/><rect x="-686.641" y="157.859" width="125" height="4" fill="#F7F7F7"/><rect x="-708.641" y="16.333" width="260" height="5" fill="#5BAEE0"/><rect x="-738.641" y="71.641" width="67.641" height="66" opacity=".95" fill="#5BAEE0"/><path d="M-711.436 115.693v-16.009h7.057c3.36 0 5.208 2.28 5.208 5.016 0 2.712-1.872 4.993-5.208 4.993h-4.249v6h-2.808zm9.385-10.993c0-1.536-1.128-2.544-2.712-2.544h-3.865v5.064h3.865c1.584 0 2.712-1.008 2.712-2.52z" opacity=".1"/><path d="M-711.436 113.693v-16.009h7.057c3.36 0 5.208 2.28 5.208 5.016 0 2.712-1.872 4.993-5.208 4.993h-4.249v6h-2.808zm9.385-10.993c0-1.536-1.128-2.544-2.712-2.544h-3.865v5.064h3.865c1.584 0 2.712-1.008 2.712-2.52z" fill="#fff"/><defs><path id="a" d="M-56.12 208c0 6.627-5.373 12-12 12h-276c-6.627 0-12-5.373-12-12v-196c0-6.627 5.373-12 12-12h276c6.627 0 12 5.373 12 12v196z"/></defs><clipPath id="b"><use xlink:href="#a" overflow="visible"/></clipPath><path d="M-55.667 208c0 6.627-5.373 12-12 12h-276c-6.627 0-12-5.373-12-12v-196c0-6.627 5.373-12 12-12h276c6.627 0 12 5.373 12 12v196z" clip-path="url(#b)" fill="none"/><g clip-path="url(#b)"><path d="M-55.667 208c0 6.627-5.373 12-12 12h-276c-6.627 0-12-5.373-12-12v-196c0-6.627 5.373-12 12-12h276c6.627 0 12 5.373 12 12v196z" fill="#FAFAFA"/><rect x="-205.667" y="17.333" width="260" height="185.333" fill="#fff"/><g stroke="#5BAEE0" fill="none"><polyline points="54.333,197.667 54.333,202.667 49.333,202.667"/><line x1="41.069" y1="202.667" x2="-196.534" y2="202.667" stroke-dasharray="10.3306,8.2645"/><polyline points="-200.667,202.667 -205.667,202.667 -205.667,197.667"/><line x1="-205.667" y1="189.416" x2="-205.667" y2="26.459" stroke-dasharray="10.3137,8.251"/><polyline points="-205.667,22.333 -205.667,17.333 -200.667,17.333"/><line x1="-192.402" y1="17.333" x2="45.201" y2="17.333" stroke-dasharray="10.3306,8.2645"/><polyline points="49.333,17.333 54.333,17.333 54.333,22.333"/><line x1="54.333" y1="30.584" x2="54.333" y2="193.541" stroke-dasharray="10.3137,8.251"/></g><rect x="-238.641" y="40.693" width="65.948" height="66" fill="#5BAEE0"/><rect x="-239.094" y="114.693" width="65.948" height="66" opacity=".68" fill="#5BAEE0"/><rect x="-313.141" y="40.693" width="65.948" height="66" opacity=".68" fill="#5BAEE0"/><rect x="-313.594" y="114.693" width="65.948" height="66" opacity=".68" fill="#5BAEE0"/><path d="M-190.017 67.395c-1.12.497-2.323.832-3.586.983 1.289-.773 2.279-1.996 2.746-3.454-1.207.715-2.543 1.235-3.965 1.515-1.139-1.214-2.762-1.971-4.557-1.971-3.448 0-6.243 2.795-6.243 6.243 0 .489.055.966.162 1.423-5.188-.26-9.79-2.746-12.869-6.523-.538.922-.846 1.995-.846 3.139 0 2.166 1.102 4.077 2.777 5.196-1.023-.032-1.986-.313-2.828-.78l-.001.078c0 3.025 2.153 5.549 5.008 6.122-.523.143-1.075.219-1.645.219-.402 0-.793-.039-1.175-.112.795 2.48 3.101 4.286 5.832 4.336-2.137 1.675-4.829 2.673-7.754 2.673-.504 0-1.001-.03-1.489-.088 2.762 1.772 6.044 2.806 9.571 2.806 11.483 0 17.764-9.514 17.764-17.765 0-.27-.006-.539-.018-.808 1.22-.88 2.278-1.979 3.116-3.232z" opacity=".1"/><path d="M-190.017 65.395c-1.12.497-2.323.832-3.586.983 1.289-.773 2.279-1.996 2.746-3.454-1.207.715-2.543 1.235-3.965 1.515-1.139-1.214-2.762-1.971-4.557-1.971-3.448 0-6.243 2.795-6.243 6.243 0 .489.055.966.162 1.423-5.188-.26-9.79-2.746-12.869-6.523-.538.922-.846 1.995-.846 3.139 0 2.166 1.102 4.077 2.777 5.196-1.023-.032-1.986-.313-2.828-.78l-.001.078c0 3.025 2.153 5.549 5.008 6.122-.523.143-1.075.219-1.645.219-.402 0-.793-.039-1.175-.112.795 2.48 3.101 4.286 5.832 4.336-2.137 1.675-4.829 2.673-7.754 2.673-.504 0-1.001-.03-1.489-.088 2.762 1.772 6.044 2.806 9.571 2.806 11.483 0 17.764-9.514 17.764-17.765 0-.27-.006-.539-.018-.808 1.22-.88 2.278-1.979 3.116-3.232z" fill="#fff"/><path d="M-211.998 135.608l-9.302 5.793 6.373 5.343 9.268-6.018-6.339-5.118zm11.964 22.5c-.165 0-.33-.056-.465-.167l-5.16-4.282-5.16 4.282c-.134.111-.3.167-.465.167-.139 0-.277-.039-.398-.118l-3.822-2.498v3.563l9.844 6.201 9.844-6.201v-3.563l-3.822 2.498c-.12.079-.258.118-.396.118zm10.017-16.707l-9.302-5.793-6.339 5.117 9.268 6.018 6.373-5.342zm-15.642 11.135l5.748 4.77 9.191-6.01-5.671-4.553-9.268 5.793zm-5.747 4.771l5.748-4.77-9.268-5.793-5.671 4.553 9.191 6.01z" opacity=".08"/><path d="M-211.998 133.608l-9.302 5.793 6.373 5.343 9.268-6.018-6.339-5.118zm11.964 22.5c-.165 0-.33-.056-.465-.167l-5.16-4.282-5.16 4.282c-.134.111-.3.167-.465.167-.139 0-.277-.039-.398-.118l-3.822-2.498v3.563l9.844 6.201 9.844-6.201v-3.563l-3.822 2.498c-.12.079-.258.118-.396.118zm10.017-16.707l-9.302-5.793-6.339 5.117 9.268 6.018 6.373-5.342zm-15.642 11.135l5.748 4.77 9.191-6.01-5.671-4.553-9.268 5.793zm-5.747 4.771l5.748-4.77-9.268-5.793-5.671 4.553 9.191 6.01z" fill="#fff"/><path d="M-268.961 138.918h-23.503c-3.147 0-5.698 2.551-5.698 5.698v11.633c0 3.147 2.551 5.698 5.698 5.698h23.503c3.147 0 5.698-2.551 5.698-5.698v-11.633c0-3.147-2.551-5.698-5.698-5.698zm-6.539 12.289l-7.773 3.509c-.566.271-1.03.071-1.03-.443v-6.811c0-.514.464-.714 1.03-.443l7.773 3.509s.276.142.276.34c0 .197-.276.339-.276.339z" opacity=".08"/><path d="M-268.961 136.918h-23.503c-3.147 0-5.698 2.551-5.698 5.698v11.633c0 3.147 2.551 5.698 5.698 5.698h23.503c3.147 0 5.698-2.551 5.698-5.698v-11.633c0-3.147-2.551-5.698-5.698-5.698zm-6.539 12.289l-7.773 3.509c-.566.271-1.03.071-1.03-.443v-6.811c0-.514.464-.714 1.03-.443l7.773 3.509s.276.142.276.34c0 .197-.276.339-.276.339z" fill="#fff"/><path d="M-268.932 63.468h-22c-1.105 0-2 .895-2 2v22c0 1.105.895 2 2 2h11.578v-10.669h-3.694v-3.552h3.694v-2.091c0-2.998 2.081-5.438 4.938-5.438h3.452v3.781h-3.452c-.408 0-.864.537-.864 1.255v2.493h4.316v3.552h-4.316v10.669h6.348c1.105 0 2-.895 2-2v-22c0-1.105-.896-2-2-2z" opacity=".08"/><path d="M-268.932 61.468h-22c-1.105 0-2 .895-2 2v22c0 1.105.895 2 2 2h11.578v-10.669h-3.694v-3.552h3.694v-2.091c0-2.998 2.081-5.438 4.938-5.438h3.452v3.781h-3.452c-.408 0-.864.537-.864 1.255v2.493h4.316v3.552h-4.316v10.669h6.348c1.105 0 2-.895 2-2v-22c0-1.105-.896-2-2-2z" fill="#fff"/></g><path d="M300 208c0 6.627-5.373 12-12 12h-276c-6.627 0-12-5.373-12-12v-196c0-6.627 5.373-12 12-12h276c6.627 0 12 5.373 12 12v196z" fill="none"/><path d="M300 208c0 6.627-5.373 12-12 12h-276c-6.627 0-12-5.373-12-12v-196c0-6.627 5.373-12 12-12h276c6.627 0 12 5.373 12 12v196z" fill="#FAFAFA"/><rect x="20" y="17.333" width="260" height="185.333" fill="#fff" stroke="#E8E7E8"/><path d="M299.547 208c0 6.627-5.373 12-12 12h-276c-6.627 0-12-5.373-12-12v-196c0-6.627 5.373-12 12-12h276c6.627 0 12 5.373 12 12v196z" fill="none"/><rect x="123.026" y="55.193" width="95.333" height="4" fill="#E5E5E5"/><rect x="123.026" y="82.193" width="108.167" height="4" fill="#E5E5E5"/><rect x="123.026" y="109.193" width="66.833" height="4" fill="#F7F7F7"/><rect x="49.026" y="144.026" width="199.5" height="4" fill="#F7F7F7"/><rect x="49.026" y="167.359" width="199.5" height="4" fill="#F7F7F7"/><circle cx="71.193" cy="83.193" r="32.5" fill="#F7F7F7"/><path d="M88.846 73.638c-1.134.503-2.352.842-3.631.995 1.305-.782 2.307-2.021 2.78-3.497-1.222.724-2.574 1.25-4.014 1.534-1.153-1.229-2.796-1.996-4.614-1.996-3.491 0-6.321 2.83-6.321 6.32 0 .495.056.978.164 1.44-5.253-.263-9.911-2.78-13.028-6.604-.544.934-.856 2.019-.856 3.178 0 2.193 1.116 4.127 2.812 5.261-1.035-.033-2.011-.317-2.863-.79l-.001.079c0 3.063 2.179 5.617 5.07 6.198-.53.145-1.088.222-1.665.222-.407 0-.803-.04-1.189-.113.804 2.511 3.139 4.339 5.905 4.389-2.164 1.696-4.888 2.706-7.85 2.706-.51 0-1.013-.03-1.508-.089 2.797 1.794 6.119 2.841 9.689 2.841 11.625 0 17.983-9.632 17.983-17.984 0-.273-.006-.546-.018-.818 1.236-.891 2.308-2.005 3.155-3.272z" fill="#3E9EDA"/><g><g opacity=".1"><polygon points="-683.646,90.64 -683.646,94.625 -680.99,94.625 -684.974,98.609 -688.959,94.625 -686.302,94.625 -686.302,90.64"/><polygon points="-686.302,85.328 -686.302,81.344 -688.959,81.344 -684.974,77.359 -680.99,81.344 -683.646,81.344 -683.646,85.328"/><polygon points="-687.63,89.312 -691.615,89.312 -691.615,91.969 -695.599,87.984 -691.615,84 -691.615,86.656 -687.63,86.656"/><polygon points="-682.318,86.656 -678.334,86.656 -678.334,84 -674.349,87.984 -678.334,91.969 -678.334,89.312 -682.318,89.312"/></g><g fill="#fff"><polygon points="-683.646,88.64 -683.646,92.625 -680.99,92.625 -684.974,96.609 -688.959,92.625 -686.302,92.625 -686.302,88.64"/><polygon points="-686.302,83.328 -686.302,79.344 -688.959,79.344 -684.974,75.359 -680.99,79.344 -683.646,79.344 -683.646,83.328"/><polygon points="-687.63,87.312 -691.615,87.312 -691.615,89.969 -695.599,85.984 -691.615,82 -691.615,84.656 -687.63,84.656"/><polygon points="-682.318,84.656 -678.334,84.656 -678.334,82 -674.349,85.984 -678.334,89.969 -678.334,87.312 -682.318,87.312"/></g></g></svg>