<svg xmlns="http://www.w3.org/2000/svg" xmlns:xlink="http://www.w3.org/1999/xlink" width="300" height="220"><path d="M-72.974 208c0 6.627-5.373 12-12 12h-276c-6.627 0-12-5.373-12-12v-196c0-6.627 5.373-12 12-12h276c6.627 0 12 5.373 12 12v196z" fill="#FAFAFA"/><rect x="-352.974" y="17.333" width="260" height="185.333" fill="#fff"/><g stroke="#5BAEE0" fill="none"><polyline points="-92.974,197.667 -92.974,202.667 -97.974,202.667"/><line x1="-106.238" y1="202.667" x2="-343.842" y2="202.667" stroke-dasharray="10.3306,8.2645"/><polyline points="-347.974,202.667 -352.974,202.667 -352.974,197.667"/><line x1="-352.974" y1="189.416" x2="-352.974" y2="26.459" stroke-dasharray="10.3137,8.251"/><polyline points="-352.974,22.333 -352.974,17.333 -347.974,17.333"/><line x1="-339.71" y1="17.333" x2="-102.106" y2="17.333" stroke-dasharray="10.3306,8.2645"/><polyline points="-97.974,17.333 -92.974,17.333 -92.974,22.333"/><line x1="-92.974" y1="30.584" x2="-92.974" y2="193.541" stroke-dasharray="10.3137,8.251"/></g><rect x="-330.307" y="57.693" width="216" height="4" fill="#E8E7E8"/><rect x="-330.307" y="84.693" width="216" height="4" fill="#E8E7E8"/><rect x="-330.307" y="110.693" width="216" height="4" fill="#E8E7E8"/><rect x="-330.974" y="133.526" width="125" height="4" fill="#F7F7F7"/><rect x="-330.974" y="157.859" width="125" height="4" fill="#F7F7F7"/><rect x="-352.974" y="16.333" width="260" height="5" fill="#5BAEE0"/><rect x="-382.974" y="71.641" width="67.641" height="66" opacity=".95" fill="#5BAEE0"/><path d="M-355.77 115.693v-16.009h7.057c3.36 0 5.208 2.28 5.208 5.016 0 2.712-1.872 4.993-5.208 4.993h-4.249v6h-2.808zm9.385-10.993c0-1.536-1.128-2.544-2.712-2.544h-3.865v5.064h3.865c1.584 0 2.712-1.008 2.712-2.52z" opacity=".1"/><path d="M-355.77 113.693v-16.009h7.057c3.36 0 5.208 2.28 5.208 5.016 0 2.712-1.872 4.993-5.208 4.993h-4.249v6h-2.808zm9.385-10.993c0-1.536-1.128-2.544-2.712-2.544h-3.865v5.064h3.865c1.584 0 2.712-1.008 2.712-2.52z" fill="#fff"/><defs><path id="a" d="M299.547 208c0 6.627-5.373 12-12 12h-276c-6.627 0-12-5.373-12-12v-196c0-6.627 5.373-12 12-12h276c6.627 0 12 5.373 12 12v196z"/></defs><clipPath id="b"><use xlink:href="#a" overflow="visible"/></clipPath><path d="M300 208c0 6.627-5.373 12-12 12h-276c-6.627 0-12-5.373-12-12v-196c0-6.627 5.373-12 12-12h276c6.627 0 12 5.373 12 12v196z" clip-path="url(#b)" fill="none"/><g clip-path="url(#b)"><path d="M300 208c0 6.627-5.373 12-12 12h-276c-6.627 0-12-5.373-12-12v-196c0-6.627 5.373-12 12-12h276c6.627 0 12 5.373 12 12v196z" fill="#FAFAFA"/><rect x="150" y="17.333" width="260" height="185.333" fill="#fff"/><g stroke="#5BAEE0" fill="none"><polyline points="410,197.667 410,202.667 405,202.667"/><line x1="396.736" y1="202.667" x2="159.132" y2="202.667" stroke-dasharray="10.3306,8.2645"/><polyline points="155,202.667 150,202.667 150,197.667"/><line x1="150" y1="189.416" x2="150" y2="26.459" stroke-dasharray="10.3137,8.251"/><polyline points="150,22.333 150,17.333 155,17.333"/><line x1="163.264" y1="17.333" x2="400.868" y2="17.333" stroke-dasharray="10.3306,8.2645"/><polyline points="405,17.333 410,17.333 410,22.333"/><line x1="410" y1="30.584" x2="410" y2="193.541" stroke-dasharray="10.3137,8.251"/></g><rect x="117.026" y="40.693" width="65.948" height="66" fill="#5BAEE0"/><rect x="116.573" y="114.693" width="65.948" height="66" opacity=".68" fill="#5BAEE0"/><rect x="42.526" y="40.693" width="65.948" height="66" opacity=".68" fill="#5BAEE0"/><rect x="42.073" y="114.693" width="65.948" height="66" opacity=".68" fill="#5BAEE0"/><path d="M165.649 67.395c-1.12.497-2.323.832-3.586.983 1.289-.773 2.279-1.996 2.746-3.454-1.207.715-2.543 1.235-3.965 1.515-1.139-1.214-2.762-1.971-4.557-1.971-3.448 0-6.243 2.795-6.243 6.243 0 .489.055.966.162 1.423-5.188-.26-9.79-2.746-12.869-6.523-.538.922-.846 1.995-.846 3.139 0 2.166 1.102 4.077 2.777 5.196-1.023-.032-1.986-.313-2.828-.78l-.001.078c0 3.025 2.153 5.549 5.008 6.122-.523.143-1.075.219-1.645.219-.402 0-.793-.039-1.175-.112.795 2.48 3.101 4.286 5.833 4.336-2.137 1.675-4.829 2.673-7.754 2.673-.504 0-1.001-.03-1.489-.088 2.762 1.772 6.044 2.806 9.571 2.806 11.483 0 17.764-9.514 17.764-17.765 0-.27-.006-.539-.018-.808 1.22-.88 2.278-1.979 3.115-3.232z" opacity=".1"/><path d="M165.649 65.395c-1.12.497-2.323.832-3.586.983 1.289-.773 2.279-1.996 2.746-3.454-1.207.715-2.543 1.235-3.965 1.515-1.139-1.214-2.762-1.971-4.557-1.971-3.448 0-6.243 2.795-6.243 6.243 0 .489.055.966.162 1.423-5.188-.26-9.79-2.746-12.869-6.523-.538.922-.846 1.995-.846 3.139 0 2.166 1.102 4.077 2.777 5.196-1.023-.032-1.986-.313-2.828-.78l-.001.078c0 3.025 2.153 5.549 5.008 6.122-.523.143-1.075.219-1.645.219-.402 0-.793-.039-1.175-.112.795 2.48 3.101 4.286 5.833 4.336-2.137 1.675-4.829 2.673-7.754 2.673-.504 0-1.001-.03-1.489-.088 2.762 1.772 6.044 2.806 9.571 2.806 11.483 0 17.764-9.514 17.764-17.765 0-.27-.006-.539-.018-.808 1.22-.88 2.278-1.979 3.115-3.232z" fill="#fff"/><path d="M143.668 135.608l-9.302 5.793 6.373 5.343 9.268-6.018-6.339-5.118zm11.964 22.5c-.165 0-.33-.056-.465-.167l-5.16-4.282-5.16 4.282c-.134.111-.3.167-.465.167-.139 0-.277-.039-.398-.118l-3.822-2.498v3.563l9.844 6.201 9.844-6.201v-3.563l-3.822 2.498c-.119.079-.257.118-.396.118zm10.017-16.707l-9.302-5.793-6.339 5.117 9.268 6.018 6.373-5.342zm-15.641 11.135l5.748 4.77 9.191-6.01-5.671-4.553-9.268 5.793zm-5.748 4.771l5.748-4.77-9.268-5.793-5.671 4.553 9.191 6.01z" opacity=".08"/><path d="M143.668 133.608l-9.302 5.793 6.373 5.343 9.268-6.018-6.339-5.118zm11.964 22.5c-.165 0-.33-.056-.465-.167l-5.16-4.282-5.16 4.282c-.134.111-.3.167-.465.167-.139 0-.277-.039-.398-.118l-3.822-2.498v3.563l9.844 6.201 9.844-6.201v-3.563l-3.822 2.498c-.119.079-.257.118-.396.118zm10.017-16.707l-9.302-5.793-6.339 5.117 9.268 6.018 6.373-5.342zm-15.641 11.135l5.748 4.77 9.191-6.01-5.671-4.553-9.268 5.793zm-5.748 4.771l5.748-4.77-9.268-5.793-5.671 4.553 9.191 6.01z" fill="#fff"/><path d="M86.706 138.918h-23.504c-3.147 0-5.698 2.551-5.698 5.698v11.633c0 3.147 2.551 5.698 5.698 5.698h23.503c3.147 0 5.698-2.551 5.698-5.698v-11.633c0-3.147-2.551-5.698-5.697-5.698zm-6.539 12.289l-7.773 3.509c-.566.271-1.03.071-1.03-.443v-6.811c0-.514.464-.714 1.03-.443l7.773 3.509s.276.142.276.34c0 .197-.276.339-.276.339z" opacity=".08"/><path d="M86.706 136.918h-23.504c-3.147 0-5.698 2.551-5.698 5.698v11.633c0 3.147 2.551 5.698 5.698 5.698h23.503c3.147 0 5.698-2.551 5.698-5.698v-11.633c0-3.147-2.551-5.698-5.697-5.698zm-6.539 12.289l-7.773 3.509c-.566.271-1.03.071-1.03-.443v-6.811c0-.514.464-.714 1.03-.443l7.773 3.509s.276.142.276.34c0 .197-.276.339-.276.339z" fill="#fff"/><path d="M86.734 63.468h-22c-1.105 0-2 .895-2 2v22c0 1.105.895 2 2 2h11.578v-10.669h-3.694v-3.552h3.694v-2.091c0-2.998 2.081-5.438 4.938-5.438h3.452v3.781h-3.452c-.408 0-.864.537-.864 1.255v2.493h4.316v3.552h-4.316v10.669h6.348c1.105 0 2-.895 2-2v-22c0-1.105-.895-2-2-2z" opacity=".08"/><path d="M86.734 61.468h-22c-1.105 0-2 .895-2 2v22c0 1.105.895 2 2 2h11.578v-10.669h-3.694v-3.552h3.694v-2.091c0-2.998 2.081-5.438 4.938-5.438h3.452v3.781h-3.452c-.408 0-.864.537-.864 1.255v2.493h4.316v3.552h-4.316v10.669h6.348c1.105 0 2-.895 2-2v-22c0-1.105-.895-2-2-2z" fill="#fff"/></g><path d="M655.667 208c0 6.627-5.373 12-12 12h-276c-6.627 0-12-5.373-12-12v-196c0-6.627 5.373-12 12-12h276c6.627 0 12 5.373 12 12v196z" fill="none"/><path d="M655.667 208c0 6.627-5.373 12-12 12h-276c-6.627 0-12-5.373-12-12v-196c0-6.627 5.373-12 12-12h276c6.627 0 12 5.373 12 12v196z" fill="#FAFAFA"/><rect x="375.667" y="17.333" width="260" height="185.333" fill="#fff" stroke="#E8E7E8"/><path d="M655.214 208c0 6.627-5.373 12-12 12h-276c-6.627 0-12-5.373-12-12v-196c0-6.627 5.373-12 12-12h276c6.627 0 12 5.373 12 12v196z" fill="none"/><rect x="478.693" y="55.193" width="95.333" height="4" fill="#E5E5E5"/><rect x="478.693" y="82.193" width="108.167" height="4" fill="#E5E5E5"/><rect x="478.693" y="109.193" width="66.833" height="4" fill="#F7F7F7"/><rect x="404.693" y="144.026" width="199.5" height="4" fill="#F7F7F7"/><rect x="404.693" y="167.359" width="199.5" height="4" fill="#F7F7F7"/><circle cx="426.859" cy="83.193" r="32.5" fill="#F7F7F7"/><path d="M444.513 73.638c-1.134.503-2.352.842-3.631.995 1.305-.782 2.307-2.021 2.78-3.497-1.222.724-2.574 1.25-4.014 1.534-1.153-1.229-2.796-1.996-4.614-1.996-3.491 0-6.321 2.83-6.321 6.32 0 .495.056.978.164 1.44-5.253-.263-9.911-2.78-13.028-6.604-.544.934-.856 2.019-.856 3.178 0 2.193 1.116 4.127 2.812 5.261-1.035-.033-2.01-.317-2.863-.79l-.001.079c0 3.063 2.179 5.617 5.07 6.198-.53.145-1.088.222-1.665.222-.407 0-.803-.04-1.189-.113.804 2.511 3.139 4.339 5.905 4.389-2.164 1.696-4.888 2.706-7.85 2.706-.51 0-1.013-.03-1.508-.089 2.797 1.794 6.118 2.841 9.689 2.841 11.625 0 17.983-9.632 17.983-17.984 0-.273-.006-.546-.018-.818 1.236-.891 2.307-2.005 3.155-3.272z" fill="#3E9EDA"/><g><g opacity=".1"><polygon points="-327.979,90.64 -327.979,94.625 -325.323,94.625 -329.308,98.609 -333.292,94.625 -330.636,94.625 -330.636,90.64"/><polygon points="-330.636,85.328 -330.636,81.344 -333.292,81.344 -329.308,77.359 -325.323,81.344 -327.979,81.344 -327.979,85.328"/><polygon points="-331.964,89.312 -335.948,89.312 -335.948,91.969 -339.933,87.984 -335.948,84 -335.948,86.656 -331.964,86.656"/><polygon points="-326.651,86.656 -322.667,86.656 -322.667,84 -318.683,87.984 -322.667,91.969 -322.667,89.312 -326.651,89.312"/></g><g fill="#fff"><polygon points="-327.979,88.64 -327.979,92.625 -325.323,92.625 -329.308,96.609 -333.292,92.625 -330.636,92.625 -330.636,88.64"/><polygon points="-330.636,83.328 -330.636,79.344 -333.292,79.344 -329.308,75.359 -325.323,79.344 -327.979,79.344 -327.979,83.328"/><polygon points="-331.964,87.312 -335.948,87.312 -335.948,89.969 -339.933,85.984 -335.948,82 -335.948,84.656 -331.964,84.656"/><polygon points="-326.651,84.656 -322.667,84.656 -322.667,82 -318.683,85.984 -322.667,89.969 -322.667,87.312 -326.651,87.312"/></g></g></svg>