<?xml version="1.0" encoding="UTF-8" standalone="no"?>
<svg width="29px" height="20px" viewBox="0 0 29 20" version="1.1" xmlns="http://www.w3.org/2000/svg" xmlns:xlink="http://www.w3.org/1999/xlink" xmlns:sketch="http://www.bohemiancoding.com/sketch/ns">
    <!-- Generator: Sketch 3.2.2 (9983) - http://www.bohemiancoding.com/sketch -->
    <title>ThinkstockPhotos-184369409</title>
    <desc>Created with Sketch.</desc>
    <defs></defs>
    <g id="Page-1" stroke="none" stroke-width="1" fill="none" fill-rule="evenodd" sketch:type="MSPage">
        <g id="ThinkstockPhotos-184369409" sketch:type="MSLayerGroup" fill="#F6A623">
            <path d="M26.829234,0.402240896 L1.91627125,0.402240896 C0.861849515,0.402240896 0,1.25430439 0,2.29542484 L0,17.4429879 C0,18.4811951 0.861849515,19.3333333 1.91627125,19.3333333 L26.829234,19.3333333 C27.8829753,19.3333333 28.7455053,18.4811951 28.7455053,17.4429879 L28.7455053,2.29542484 C28.7455053,1.25430439 27.8829753,0.402240896 26.829234,0.402240896 L26.829234,0.402240896 Z M4.31181823,4.18913165 L7.18679216,4.18913165 C7.71370059,4.18913165 8.14564605,4.61520075 8.14564605,5.13441643 L8.14564605,7.0290943 C8.14564605,7.54965453 7.71370059,7.97572362 7.18679216,7.97572362 L4.31181823,7.97572362 C3.7849854,7.97572362 3.3536448,7.54965453 3.3536448,7.0290943 L3.3536448,5.13441643 C3.3536448,4.61520075 3.7849854,4.18913165 4.31181823,4.18913165 L4.31181823,4.18913165 Z M3.3536448,12.7099907 L5.27052091,12.7099907 L5.27052091,14.6032493 L3.3536448,14.6032493 L3.3536448,12.7099907 Z M6.22869434,12.7099907 L8.14557045,12.7099907 L8.14557045,14.6032493 L6.22869434,14.6032493 L6.22869434,12.7099907 Z M10.0604808,12.7099907 L11.9768276,12.7099907 L11.9768276,14.6032493 L10.0604808,14.6032493 L10.0604808,12.7099907 Z M12.9355303,12.7099907 L14.8518015,12.7099907 L14.8518015,14.6032493 L12.9355303,14.6032493 L12.9355303,12.7099907 Z M16.7681484,12.7099907 L18.6844953,12.7099907 L18.6844953,14.6032493 L16.7681484,14.6032493 L16.7681484,12.7099907 Z M19.6427443,12.7099907 L21.5601497,12.7099907 L21.5601497,14.6032493 L19.6427443,14.6032493 L19.6427443,12.7099907 Z" id="Fill-3" sketch:type="MSShapeGroup"></path>
        </g>
    </g>
</svg>