<?xml version="1.0" encoding="UTF-8" standalone="no"?>
<svg width="24px" height="24px" viewBox="0 0 24 24" version="1.1" xmlns="http://www.w3.org/2000/svg" xmlns:xlink="http://www.w3.org/1999/xlink" xmlns:sketch="http://www.bohemiancoding.com/sketch/ns">
    <!-- Generator: Sketch 3.2.2 (9983) - http://www.bohemiancoding.com/sketch -->
    <title>shopping232</title>
    <desc>Created with Sketch.</desc>
    <defs></defs>
    <g id="Page-1" stroke="none" stroke-width="1" fill="none" fill-rule="evenodd" sketch:type="MSPage">
        <g id="shopping232" sketch:type="MSLayerGroup" fill="#FFFFFF">
            <g id="shopping-cart" sketch:type="MSShapeGroup">
                <path d="M7.2,19.2 C5.88,19.2 4.8,20.28 4.8,21.6 C4.8,22.92 5.88,24 7.2,24 C8.52,24 9.6,22.92 9.6,21.6 C9.6,20.28 8.52,19.2 7.2,19.2 L7.2,19.2 Z M0,0 L0,2.4 L2.4,2.4 L6.72,11.52 L5.04,14.4 C4.92,14.76 4.8,15.24 4.8,15.6 C4.8,16.92 5.88,18 7.2,18 L21.6,18 L21.6,15.6 L7.68,15.6 C7.56,15.6 7.44,15.48 7.44,15.36 L7.44,15.2399529 L8.52,13.1999529 L17.4,13.1999529 C18.36,13.1999529 19.08,12.7199529 19.44,11.9999529 L23.76,4.2 C24,3.96 24,3.84 24,3.6 C24,2.88 23.52,2.4 22.8,2.4 L5.04,2.4 L3.96,0 L0,0 L0,0 Z M19.2,19.2 C17.88,19.2 16.8,20.28 16.8,21.6 C16.8,22.92 17.88,24 19.2,24 C20.52,24 21.6,22.92 21.6,21.6 C21.6,20.28 20.52,19.2 19.2,19.2 L19.2,19.2 Z" id="Shape"></path>
            </g>
        </g>
    </g>
</svg>